<?xml version="1.0" encoding="UTF-8" standalone="no"?>
<svg
   xmlns:dc="http://purl.org/dc/elements/1.1/"
   xmlns:cc="http://creativecommons.org/ns#"
   xmlns:rdf="http://www.w3.org/1999/02/22-rdf-syntax-ns#"
   xmlns:svg="http://www.w3.org/2000/svg"
   xmlns="http://www.w3.org/2000/svg"
   xmlns:sodipodi="http://sodipodi.sourceforge.net/DTD/sodipodi-0.dtd"
   xmlns:inkscape="http://www.inkscape.org/namespaces/inkscape"
   height="250"
   version="1.1"
   width="250"
   viewBox="0 0 250 250"
   id="svg2"
   inkscape:version="0.91 r13725"
   sodipodi:docname="x_btn_x.svg">
  <metadata
     id="metadata19">
    <rdf:RDF>
      <cc:Work
         rdf:about="">
        <dc:format>image/svg+xml</dc:format>
        <dc:type
           rdf:resource="http://purl.org/dc/dcmitype/StillImage" />
        <dc:title />
      </cc:Work>
    </rdf:RDF>
  </metadata>
  <defs
     id="defs17" />
  <sodipodi:namedview
     pagecolor="#ffffff"
     bordercolor="#666666"
     borderopacity="1"
     objecttolerance="10"
     gridtolerance="10"
     guidetolerance="10"
     inkscape:pageopacity="0"
     inkscape:pageshadow="2"
     inkscape:window-width="1920"
     inkscape:window-height="1018"
     id="namedview15"
     showgrid="false"
     inkscape:zoom="2.6700352"
     inkscape:cx="139.22325"
     inkscape:cy="139.28852"
     inkscape:window-x="-8"
     inkscape:window-y="-8"
     inkscape:window-maximized="1"
     inkscape:current-layer="fills" />
  <g
     id="RenderLayer_LineSet"
     inkscape:groupmode="lineset"
     inkscape:label="RenderLayer_LineSet">
    <g
       id="fills"
       inkscape:groupmode="layer"
       inkscape:label="fills">
      <path
         d="m 128.41173,0.27734791 -3.22447,-0.0403589 -3.22446,0.0403589 -3.2043,0.12213895 -3.18197,0.20179481 -3.16182,0.28145063 -3.13737,0.3579202 -3.11401,0.436514 -3.08959,0.5119216 -3.06303,0.587329 -3.035421,0.6606125 -3.008866,0.7349579 -2.979128,0.8061171 -2.949391,0.8783384 -2.918589,0.9473734 -2.886729,1.0174707 -2.853803,1.0854435 -2.819816,1.1523544 -2.784769,1.218204 -2.749719,1.284051 -2.712547,1.348839 -2.674312,1.411502 -2.636077,1.474164 -2.59678,1.534703 -2.55536,1.596302 -2.513938,1.654718 -2.471456,1.713132 -2.42791,1.771545 -2.383302,1.826774 -2.337634,1.883065 -2.290901,1.93723 -2.243109,1.990334 -2.194253,2.043438 -2.145398,2.094416 -2.094416,2.145398 -2.043438,2.194253 -1.990334,2.243109 -1.93723,2.290901 -1.883065,2.337634 -1.826774,2.383302 -1.771545,2.42791 -1.713132,2.471456 -1.654718,2.513938 -1.596302,2.55536 -1.534703,2.59678 -1.474164,2.636077 -1.411502,2.674312 -1.348839,2.712547 -1.284051,2.749719 -1.218204,2.784769 -1.1523544,2.820879 -1.0854435,2.853803 -1.0174707,2.885666 -0.9473734,2.918589 -0.8783384,2.949391 -0.8061171,2.979128 -0.7349579,3.008866 -0.6606125,3.035421 -0.587329,3.06303 -0.5119216,3.08959 -0.436514,3.11401 -0.3579202,3.13737 -0.28145063,3.16182 -0.20179481,3.18303 -0.12213895,3.20324 -0.0403589,3.22446 0.0403589,3.22447 0.12213895,3.20429 0.20179481,3.18198 0.28145063,3.16181 0.3579202,3.13738 0.436514,3.11402 0.5119216,3.08958 0.587329,3.06303 0.6606125,3.03542 0.7349579,3.00887 0.8061171,2.97913 0.8783384,2.94939 0.9473734,2.91858 1.0174707,2.88673 1.0854435,2.85381 1.1523544,2.81981 1.218204,2.78477 1.284051,2.74972 1.348839,2.71254 1.411502,2.67431 1.474164,2.63609 1.534703,2.59677 1.596302,2.55537 1.654718,2.51393 1.713132,2.47146 1.771545,2.4279 1.826774,2.38331 1.883065,2.33763 1.93723,2.29091 1.990334,2.24311 2.043438,2.19425 2.094416,2.14539 2.145398,2.09442 2.194253,2.04344 2.243109,1.99034 2.290901,1.93723 2.337634,1.88306 2.383302,1.82677 2.42791,1.77154 2.471456,1.71314 2.513938,1.65471 2.55536,1.59631 2.59678,1.5347 2.636077,1.47417 2.674312,1.4115 2.712547,1.34884 2.749719,1.28404 2.784769,1.21821 2.820879,1.15236 2.853803,1.08544 2.885666,1.01747 2.918589,0.94737 2.949391,0.87834 2.979128,0.80612 3.008866,0.73496 3.035421,0.66061 3.06303,0.58733 3.08959,0.51192 3.11401,0.43651 3.13737,0.35793 3.16182,0.28145 3.18303,0.20178 3.20324,0.12215 3.22446,0.0403 3.22447,-0.0403 3.20429,-0.12215 3.18198,-0.20178 3.16181,-0.28145 3.13738,-0.35793 3.11402,-0.43651 3.08958,-0.51192 3.06303,-0.58733 3.03542,-0.66061 3.00887,-0.73496 2.97913,-0.80612 2.94939,-0.87834 2.91858,-0.94737 2.88673,-1.01747 2.85381,-1.08544 2.81981,-1.15236 2.78477,-1.21821 2.74972,-1.28404 2.71254,-1.34884 2.67431,-1.4115 2.63609,-1.47417 2.59677,-1.5347 2.55537,-1.59631 2.51393,-1.65471 2.47146,-1.71314 2.4279,-1.77154 2.38331,-1.82677 2.33763,-1.88306 2.29091,-1.93723 2.24311,-1.99034 2.19425,-2.04344 2.14539,-2.09442 2.09442,-2.14539 2.04344,-2.19425 1.99034,-2.24311 1.93723,-2.29091 1.88306,-2.33763 1.82677,-2.38331 1.77154,-2.4279 1.71314,-2.47146 1.65471,-2.51393 1.59631,-2.55537 1.5347,-2.59677 1.47417,-2.63609 1.4115,-2.67431 1.34884,-2.71254 1.28404,-2.74972 1.21821,-2.78477 1.15236,-2.82088 1.08544,-2.85381 1.01747,-2.88566 0.94737,-2.91858 0.87834,-2.94939 0.80612,-2.97913 0.73496,-3.00887 0.66061,-3.03542 0.58733,-3.06303 0.51192,-3.08958 0.43651,-3.11402 0.35793,-3.13738 0.28145,-3.16181 0.20178,-3.18303 0.12215,-3.20324 0.0403,-3.22447 -0.0403,-3.22446 -0.12215,-3.2043 -0.20178,-3.18197 -0.28145,-3.16182 -0.35793,-3.13737 -0.43651,-3.11401 -0.51192,-3.08959 -0.58733,-3.06303 -0.66061,-3.035421 -0.73496,-3.008866 -0.80612,-2.979128 -0.87834,-2.949391 -0.94737,-2.918589 -1.01747,-2.886729 -1.08544,-2.853803 -1.15236,-2.819816 -1.21821,-2.784769 -1.28404,-2.749719 -1.34884,-2.712547 -1.4115,-2.674312 -1.47417,-2.636077 -1.5347,-2.59678 -1.59631,-2.55536 -1.65471,-2.513938 -1.71314,-2.471456 -1.77154,-2.42791 -1.82677,-2.383302 -1.88306,-2.337634 -1.93723,-2.290901 -1.99034,-2.243109 -2.04344,-2.194253 -2.09442,-2.145398 -2.14539,-2.094416 -2.19425,-2.043438 -2.24311,-1.990334 -2.29091,-1.93723 -2.33763,-1.883065 -2.38331,-1.826774 -2.4279,-1.771545 -2.47146,-1.713132 -2.51393,-1.654718 -2.55537,-1.596302 -2.59677,-1.534703 -2.63609,-1.474164 -2.67431,-1.411502 -2.71254,-1.348839 -2.74972,-1.284051 -2.78477,-1.218204 -2.82088,-1.1523544 -2.85381,-1.0854435 -2.88566,-1.0174707 -2.91858,-0.9473734 -2.94939,-0.8783384 -2.97913,-0.8061171 -3.00887,-0.7349579 -3.03542,-0.6606125 -3.06303,-0.587329 -3.08958,-0.5119216 -3.11402,-0.436514 -3.13738,-0.3579202 -3.16181,-0.28145063 -3.18303,-0.20179481 -3.20324,-0.12213895 z"
         fill_rule="evenodd"
         id="path6"
         style="fill:#000000;fill-opacity:1;stroke:none"
         inkscape:connector-curvature="0" />
      <path
         d=" M 98.847, 44.352 69.994, 44.352 108.296, 119.015 67.379, 198.529 95.388, 198.529 124.072, 140.212 152.756, 198.529 182.621, 198.529 140.945, 120.808 179.669, 44.352 151.491, 44.352 125.422, 99.822 98.847, 44.352  z"
         fill="rgb(255, 255, 255)"
         fill-opacity="1.0"
         fill_rule="evenodd"
         stroke="none"
         id="path8" />
    </g>
    <g
       id="strokes"
       inkscape:groupmode="layer"
       inkscape:label="strokes">
      <path
         d=" M 98.847, 44.352 88.847, 44.352 78.847, 44.352 69.994, 44.352 74.558, 53.250 79.123, 62.147 83.687, 71.045 88.252, 79.942 92.816, 88.840 97.380, 97.738 101.945, 106.635 106.509, 115.533 108.296, 119.015 103.720, 127.907 99.144, 136.799 94.569, 145.691 89.993, 154.582 85.418, 163.474 80.842, 172.366 76.266, 181.258 71.691, 190.150 67.379, 198.529 77.379, 198.529 87.379, 198.529 95.388, 198.529 99.801, 189.556 104.215, 180.583 108.629, 171.610 113.042, 162.636 117.456, 153.663 121.870, 144.690 124.072, 140.212 128.486, 149.185 132.899, 158.159 137.313, 167.132 141.726, 176.105 146.140, 185.079 150.554, 194.052 152.756, 198.529 162.756, 198.529 172.756, 198.529 182.621, 198.529 177.896, 189.716 173.170, 180.904 168.444, 172.091 163.718, 163.278 158.993, 154.465 154.267, 145.652 149.541, 136.839 144.815, 128.026 140.945, 120.808 145.463, 111.887 149.982, 102.966 154.500, 94.045 159.018, 85.124 163.537, 76.203 168.055, 67.282 172.573, 58.361 177.092, 49.440 179.669, 44.352 169.669, 44.352 159.669, 44.352 151.491, 44.352 147.237, 53.403 142.984, 62.453 138.731, 71.503 134.477, 80.554 130.224, 89.604 125.971, 98.655 125.422, 99.822 121.101, 90.804 116.781, 81.785 112.460, 72.767 108.139, 63.749 103.819, 54.730 99.498, 45.712 98.847, 44.352 "
         fill="none"
         stroke="rgb(12, 12, 12)"
         stroke-linecap="butt"
         stroke-linejoin="round"
         stroke-opacity="1.0"
         stroke-width="0.0"
         id="path11" />
      <path
         d=" M 128.036, 7.391 125.000, 7.353 121.964, 7.391 118.947, 7.506 115.951, 7.696 112.974, 7.961 110.020, 8.298 107.088, 8.709 104.179, 9.191 101.295, 9.744 98.437, 10.366 95.604, 11.058 92.799, 11.817 90.022, 12.644 87.274, 13.536 84.556, 14.494 81.869, 15.516 79.214, 16.601 76.592, 17.748 74.003, 18.957 71.449, 20.227 68.931, 21.556 66.449, 22.944 64.004, 24.389 61.598, 25.892 59.231, 27.450 56.904, 29.063 54.618, 30.731 52.374, 32.451 50.173, 34.224 48.016, 36.048 45.904, 37.922 43.838, 39.846 41.818, 41.818 39.846, 43.838 37.922, 45.904 36.048, 48.016 34.224, 50.173 32.451, 52.374 30.731, 54.618 29.063, 56.904 27.450, 59.231 25.892, 61.598 24.389, 64.004 22.944, 66.449 21.556, 68.931 20.227, 71.449 18.957, 74.003 17.748, 76.592 16.601, 79.214 15.516, 81.870 14.494, 84.557 13.536, 87.274 12.644, 90.022 11.817, 92.799 11.058, 95.604 10.366, 98.437 9.744, 101.295 9.191, 104.179 8.709, 107.088 8.298, 110.020 7.961, 112.974 7.696, 115.951 7.506, 118.948 7.391, 121.964 7.353, 125.000 7.391, 128.036 7.506, 131.053 7.696, 134.049 7.961, 137.026 8.298, 139.980 8.709, 142.912 9.191, 145.821 9.744, 148.705 10.366, 151.563 11.058, 154.396 11.817, 157.201 12.644, 159.978 13.536, 162.726 14.494, 165.444 15.516, 168.131 16.601, 170.786 17.748, 173.408 18.957, 175.997 20.227, 178.551 21.556, 181.069 22.944, 183.551 24.389, 185.996 25.892, 188.402 27.450, 190.769 29.063, 193.096 30.731, 195.382 32.451, 197.626 34.224, 199.827 36.048, 201.984 37.922, 204.096 39.846, 206.162 41.818, 208.182 43.838, 210.154 45.904, 212.078 48.016, 213.952 50.173, 215.776 52.374, 217.549 54.618, 219.269 56.904, 220.937 59.231, 222.550 61.598, 224.108 64.004, 225.611 66.449, 227.056 68.931, 228.444 71.449, 229.773 74.003, 231.043 76.592, 232.252 79.214, 233.399 81.870, 234.484 84.557, 235.506 87.274, 236.464 90.022, 237.356 92.799, 238.183 95.604, 238.942 98.437, 239.634 101.295, 240.256 104.179, 240.809 107.088, 241.291 110.020, 241.702 112.974, 242.039 115.951, 242.304 118.948, 242.494 121.964, 242.609 125.000, 242.647 128.036, 242.609 131.053, 242.494 134.049, 242.304 137.026, 242.039 139.980, 241.702 142.912, 241.291 145.821, 240.809 148.705, 240.256 151.563, 239.634 154.396, 238.942 157.201, 238.183 159.978, 237.356 162.726, 236.464 165.444, 235.506 168.131, 234.484 170.786, 233.399 173.408, 232.252 175.997, 231.043 178.551, 229.773 181.069, 228.444 183.551, 227.056 185.996, 225.611 188.402, 224.108 190.769, 222.550 193.096, 220.937 195.382, 219.269 197.626, 217.549 199.827, 215.776 201.984, 213.952 204.096, 212.078 206.162, 210.154 208.182, 208.182 210.154, 206.162 212.078, 204.096 213.952, 201.984 215.776, 199.827 217.549, 197.626 219.269, 195.382 220.937, 193.096 222.550, 190.769 224.108, 188.402 225.611, 185.996 227.056, 183.551 228.444, 181.069 229.773, 178.551 231.043, 175.997 232.252, 173.408 233.399, 170.786 234.484, 168.130 235.506, 165.443 236.464, 162.726 237.356, 159.978 238.183, 157.201 238.942, 154.396 239.634, 151.563 240.256, 148.705 240.809, 145.821 241.291, 142.912 241.702, 139.980 242.039, 137.026 242.304, 134.049 242.494, 131.052 242.609, 128.036 242.647, 125.000 242.609, 121.964 242.494, 118.947 242.304, 115.951 242.039, 112.974 241.702, 110.020 241.291, 107.088 240.809, 104.179 240.256, 101.295 239.634, 98.437 238.942, 95.604 238.183, 92.799 237.356, 90.022 236.464, 87.274 235.506, 84.556 234.484, 81.869 233.399, 79.214 232.252, 76.592 231.043, 74.003 229.773, 71.449 228.444, 68.931 227.056, 66.449 225.611, 64.004 224.108, 61.598 222.550, 59.231 220.937, 56.904 219.269, 54.618 217.549, 52.374 215.776, 50.173 213.952, 48.016 212.078, 45.904 210.154, 43.838 208.182, 41.818 206.162, 39.846 204.096, 37.922 201.984, 36.048 199.827, 34.224 197.626, 32.451 195.382, 30.731 193.096, 29.063 190.769, 27.450 188.402, 25.892 185.996, 24.389 183.551, 22.944 181.069, 21.556 178.551, 20.227 175.997, 18.957 173.408, 17.748 170.786, 16.601 168.130, 15.516 165.443, 14.494 162.726, 13.536 159.978, 12.644 157.201, 11.817 154.396, 11.058 151.563, 10.366 148.705, 9.744 145.821, 9.191 142.912, 8.709 139.980, 8.298 137.026, 7.961 134.049, 7.696 131.052, 7.506 128.036, 7.391 "
         fill="none"
         stroke="rgb(12, 12, 12)"
         stroke-linecap="butt"
         stroke-linejoin="round"
         stroke-opacity="1.0"
         stroke-width="0.0"
         id="path13" />
    </g>
  </g>
</svg>
