<?xml version="1.0" encoding="UTF-8" standalone="no"?>
<svg
   xmlns:dc="http://purl.org/dc/elements/1.1/"
   xmlns:cc="http://creativecommons.org/ns#"
   xmlns:rdf="http://www.w3.org/1999/02/22-rdf-syntax-ns#"
   xmlns:svg="http://www.w3.org/2000/svg"
   xmlns="http://www.w3.org/2000/svg"
   xmlns:sodipodi="http://sodipodi.sourceforge.net/DTD/sodipodi-0.dtd"
   xmlns:inkscape="http://www.inkscape.org/namespaces/inkscape"
   height="250"
   version="1.1"
   width="250"
   viewBox="0 0 250 250"
   id="svg2"
   inkscape:version="0.91 r13725"
   sodipodi:docname="x_thumb_left_x.svg">
  <metadata
     id="metadata21">
    <rdf:RDF>
      <cc:Work
         rdf:about="">
        <dc:format>image/svg+xml</dc:format>
        <dc:type
           rdf:resource="http://purl.org/dc/dcmitype/StillImage" />
        <dc:title />
      </cc:Work>
    </rdf:RDF>
  </metadata>
  <defs
     id="defs19">
    <pattern
       y="0"
       x="0"
       height="6"
       width="6"
       patternUnits="userSpaceOnUse"
       id="EMFhbasepattern" />
    <pattern
       y="0"
       x="0"
       height="6"
       width="6"
       patternUnits="userSpaceOnUse"
       id="EMFhbasepattern-7" />
  </defs>
  <sodipodi:namedview
     pagecolor="#ffffff"
     bordercolor="#666666"
     borderopacity="1"
     objecttolerance="10"
     gridtolerance="10"
     guidetolerance="10"
     inkscape:pageopacity="0"
     inkscape:pageshadow="2"
     inkscape:window-width="1920"
     inkscape:window-height="1018"
     id="namedview17"
     showgrid="false"
     inkscape:zoom="2.6700352"
     inkscape:cx="28.47914"
     inkscape:cy="139.25554"
     inkscape:window-x="-8"
     inkscape:window-y="-8"
     inkscape:window-maximized="1"
     inkscape:current-layer="RenderLayer_LineSet" />
  <g
     id="RenderLayer_LineSet"
     inkscape:label="RenderLayer_LineSet"
     inkscape:groupmode="lineset">
    <g
       id="fills"
       inkscape:groupmode="layer"
       inkscape:label="fills" />
    <g
       id="strokes"
       inkscape:groupmode="layer"
       inkscape:label="strokes" />
    <path
       style="fill:#000000;fill-opacity:1;stroke:none;stroke-width:0.1;stroke-miterlimit:4;stroke-dasharray:none;stroke-opacity:1"
       d="M 117.83221,249.6181 C 73.468261,246.96697 33.699796,220.71461 13.755714,180.91409 7.0400905,167.51234 2.89602,153.31445 1.0727687,137.46137 0.46126992,132.14444 0.55809647,117.00829 1.2389775,111.47923 1.9606451,105.61896 2.8180293,100.70523 3.9274089,96.071669 12.809833,58.972362 38.182047,27.949942 72.798252,11.863799 84.466375,6.4416261 96.174089,3.0710522 110.05219,1.1386365 114.98035,0.45242966 129.88418,0.18210463 135.65692,0.67421958 179.11672,4.3790777 217.37437,30.254237 236.84633,69.112601 c 6.58,13.131082 10.61789,26.691206 12.52225,42.052309 0.78987,6.3714 0.78576,21.67055 -0.006,27.85246 -3.1588,24.617 -11.87165,45.47692 -26.84155,64.26295 -4.1657,5.22763 -13.63821,14.72686 -18.79593,18.84896 -16.74383,13.38182 -36.18836,22.2276 -56.63853,25.76619 -6.22711,1.07752 -8.96504,1.39494 -15.09323,1.74982 -5.90109,0.34172 -8.05544,0.33759 -14.15963,-0.0271 l 0,1e-5 z m -0.62241,-92.39548 0,-19.91685 4.53804,0 4.538,0 9.8485,19.91685 9.8485,19.91684 9.88714,0 c 5.43792,0 9.88714,-0.0755 9.88714,-0.16754 0,-0.0921 -1.31958,-2.57786 -2.93238,-5.52382 -1.61281,-2.94595 -7.07084,-13.05104 -12.12897,-22.45576 l -9.1966,-17.0995 1.93124,-1.22108 c 4.53114,-2.86496 9.15036,-8.53479 11.1377,-13.67088 1.58918,-4.10707 2.15631,-7.48731 2.15394,-12.83798 -0.003,-8.570711 -1.37732,-14.259533 -4.64065,-19.220865 -3.02929,-4.605507 -7.29616,-7.764224 -13.08754,-9.688546 -5.8004,-1.927317 -8.51531,-2.164545 -25.05166,-2.189021 l -14.626444,-0.02165 -0.07873,52.048322 -0.07873,52.04831 9.025734,0 9.02573,0 0,-19.91685 0,2e-5 z"
       id="path4201"
       inkscape:connector-curvature="0" />
    <path
       d="m 16.195334,67.203381 -0.71294,1.352349 -0.694824,1.360874 -0.679904,1.370465 -0.661787,1.37686 -0.644737,1.38645 -0.628752,1.39391 -0.610635,1.401371 -0.593584,1.408829 -0.576533,1.415224 -0.5584169,1.42375 -0.5413658,1.429077 -0.524315,1.436537 -0.5061983,1.441867 -0.4880817,1.449325 -0.4710308,1.454655 -0.4518486,1.459982 -0.4347978,1.465311 -0.4177468,1.470639 -0.3985645,1.475967 -0.380448,1.481297 -0.3623314,1.484493 -0.3442149,1.489822 -0.3260982,1.493015 -0.3069161,1.49836 -0.2898651,1.50048 -0.2696172,1.50474 -0.2525663,1.50794 -0.2333841,1.51113 -0.2152675,1.51327 -0.1960852,1.51646 -0.1779687,1.51753 -0.1587864,1.52072 -0.1406698,1.52287 -0.1214877,1.52391 -0.103371,1.525 -0.084189,1.52605 -0.06607,1.52713 -0.04689,1.52818 -0.02877,1.52925 -0.0085,1.52819 0.0085,1.52925 0.02877,1.52818 0.04689,1.52819 0.06607,1.52711 0.084189,1.52606 0.103371,1.52499 0.1214877,1.52392 0.1406698,1.52286 0.1587864,1.52073 0.1779687,1.51752 0.1960852,1.51646 0.2152675,1.51327 0.2333841,1.51114 0.2525663,1.50794 0.2696172,1.50474 0.2898651,1.50048 0.3069161,1.49835 0.3260982,1.49301 0.3442149,1.48982 0.3623314,1.48449 0.380448,1.4813 0.3985645,1.47597 0.4166812,1.47064 0.4347976,1.46531 0.4529144,1.45999 0.4710308,1.45465 0.4880817,1.44932 0.5061983,1.44187 0.524315,1.43653 0.5413658,1.42909 0.5584169,1.42374 0.576533,1.41523 0.593584,1.40882 0.610635,1.40138 0.628752,1.3939 0.644737,1.38646 0.661787,1.37792 0.679904,1.3694 0.694824,1.36088 0.71294,1.35235 0.728926,1.34382 0.74491,1.33529 0.761963,1.32571 0.777946,1.31612 0.793933,1.30652 0.809916,1.29587 0.825903,1.28734 0.840821,1.27562 0.856808,1.26603 0.872792,1.25537 0.888778,1.24472 0.902631,1.23299 0.918617,1.22234 0.93247,1.21061 0.948456,1.19995 0.96231,1.18717 0.977229,1.17545 0.991083,1.16372 1.006002,1.152 1.019857,1.13921 1.032644,1.12643 1.047565,1.11364 1.061417,1.10085 1.074207,1.08699 1.086994,1.0742 1.100847,1.06142 1.113637,1.04757 1.126425,1.03265 1.139212,1.01985 1.152001,1.006 1.163723,0.99108 1.175446,0.97723 1.187169,0.96231 1.199956,0.94845 1.210613,0.93248 1.222336,0.91862 1.232992,0.9037 1.244715,0.88771 1.255371,0.87279 1.266029,0.85681 1.27562,0.84189 1.287343,0.82482 1.295868,0.80992 1.306524,0.79393 1.316115,0.77795 1.325707,0.76197 1.335298,0.74491 1.343823,0.72892 1.352349,0.71295 1.360874,0.69481 1.370465,0.67992 1.37686,0.66178 1.38645,0.64474 1.39391,0.62875 1.401371,0.61063 1.408829,0.59358 1.415224,0.57654 1.42375,0.55948 1.429077,0.5403 1.436537,0.52432 1.441867,0.50619 1.449325,0.48809 1.454655,0.47103 1.459982,0.45292 1.465311,0.43479 1.470639,0.41669 1.475967,0.39856 1.481297,0.38045 1.484493,0.36233 1.489822,0.34421 1.493014,0.3261 1.49835,0.30691 1.50048,0.28986 1.50474,0.26963 1.50794,0.25256 1.51113,0.23339 1.51327,0.21526 1.51646,0.19609 1.51753,0.17797 1.52072,0.15878 1.52287,0.14067 1.52391,0.12149 1.525,0.10337 1.52605,0.0842 1.52713,0.0661 1.52818,0.0469 1.52925,0.0288 1.52819,0.008 1.52925,-0.008 1.52818,-0.0288 1.5282,-0.0469 1.52711,-0.0661 1.52606,-0.0842 1.52499,-0.10337 1.52392,-0.12149 1.52286,-0.14067 1.52073,-0.15878 1.51752,-0.17797 1.51646,-0.19609 1.51327,-0.21526 1.51114,-0.23339 1.50794,-0.25256 1.50474,-0.26963 1.50048,-0.28986 1.49835,-0.30691 1.49301,-0.3261 1.48982,-0.34421 1.48449,-0.36233 1.4813,-0.38045 1.47597,-0.39856 1.47064,-0.41669 1.46531,-0.43479 1.45999,-0.45292 1.45465,-0.47103 1.44932,-0.48809 1.44187,-0.50619 1.43653,-0.52432 1.43015,-0.54136 1.42268,-0.55842 1.41523,-0.57654 1.40882,-0.59358 1.40138,-0.61063 1.3939,-0.62875 1.38646,-0.64474 1.37792,-0.66178 1.3694,-0.67992 1.36088,-0.69481 1.35235,-0.71295 1.34382,-0.72892 1.33529,-0.74491 1.32571,-0.76197 1.31612,-0.77795 1.30652,-0.79393 1.29587,-0.80992 1.28734,-0.8259 1.27562,-0.84081 1.26603,-0.85681 1.25537,-0.87279 1.24472,-0.88879 1.23299,-0.90262 1.22234,-0.91862 1.21061,-0.93248 1.19995,-0.94845 1.18717,-0.96231 1.17545,-0.97723 1.16372,-0.99108 1.152,-1.006 1.13921,-1.01985 1.12643,-1.03265 1.11364,-1.04757 1.10085,-1.06142 1.08699,-1.0742 1.0742,-1.08699 1.06142,-1.10085 1.04757,-1.11364 1.03265,-1.12643 1.01985,-1.13921 1.006,-1.152 0.99108,-1.16372 0.97723,-1.17545 0.96231,-1.18717 0.94845,-1.19995 0.93248,-1.21061 0.91862,-1.22234 0.9037,-1.23299 0.88771,-1.24472 0.87279,-1.25537 0.85681,-1.26603 0.84189,-1.27562 0.82482,-1.28734 0.80992,-1.29587 0.79393,-1.30652 0.77795,-1.31612 0.76197,-1.32571 0.74491,-1.33529 0.72892,-1.34382 0.71295,-1.35235 0.69481,-1.36088 0.67992,-1.37047 0.66178,-1.37792 0.64474,-1.38539 0.62875,-1.3939 0.61063,-1.40138 0.59358,-1.40882 0.57654,-1.41523 0.55948,-1.42374 0.54136,-1.42909 0.52326,-1.43653 0.50619,-1.44293 0.48809,-1.44826 0.47103,-1.45465 0.45292,-1.45999 0.43479,-1.46531 0.41669,-1.47064 0.39856,-1.47597 0.38045,-1.4813 0.36233,-1.48449 0.34421,-1.48982 0.3261,-1.49409 0.30691,-1.49727 0.28986,-1.50048 0.26963,-1.50474 0.25256,-1.50794 0.23339,-1.51114 0.21526,-1.51327 0.19609,-1.51646 0.17797,-1.51859 0.15878,-1.51966 0.14067,-1.52286 0.12149,-1.52392 0.10337,-1.52499 0.0842,-1.52606 0.0661,-1.52711 0.0469,-1.52819 0.0288,-1.52924 0.008,-1.52819 -0.008,-1.52926 -0.0288,-1.52818 -0.0469,-1.52818 -0.0661,-1.52713 -0.0842,-1.52605 -0.10337,-1.525 -0.12149,-1.52391 -0.14067,-1.52287 -0.15878,-1.52072 -0.17797,-1.51753 -0.19609,-1.51646 -0.21526,-1.51327 -0.23339,-1.51113 -0.25256,-1.50794 -0.26963,-1.50474 -0.28986,-1.50048 -0.30691,-1.49836 -0.3261,-1.493015 -0.34421,-1.489822 -0.36233,-1.485559 -0.38045,-1.480231 -0.39856,-1.475967 -0.41775,-1.470639 -0.43481,-1.465311 -0.45184,-1.459982 -0.47103,-1.454655 -0.48809,-1.449325 -0.50619,-1.441867 -0.52432,-1.436537 -0.54136,-1.430143 -0.55842,-1.422684 -0.57654,-1.415224 -0.59358,-1.408829 -0.61063,-1.401371 -0.62875,-1.39391 -0.64474,-1.38645 -0.66178,-1.377925 -0.67992,-1.3694 -0.69481,-1.360874 -0.71295,-1.352349 -0.72892,-1.343823 -0.74491,-1.335298 -0.76197,-1.325707 -0.77795,-1.316115 -0.79393,-1.306524 -0.80992,-1.295868 -0.8259,-1.287343 -0.84081,-1.27562 -0.85681,-1.266029 -0.87279,-1.255371 -0.88879,-1.244715 -0.90262,-1.232992 -0.91862,-1.222336 -0.93248,-1.210613 -0.94845,-1.199956 -0.96231,-1.187169 -0.97723,-1.175446 -0.99108,-1.163723 -1.006,-1.152001 -1.01985,-1.139212 -1.03372,-1.126425 -1.0465,-1.113637 -1.06142,-1.100847 -1.0742,-1.086994 -1.08699,-1.074207 -1.10085,-1.061417 -1.11364,-1.047565 -1.12643,-1.032644 -1.13921,-1.019857 -1.152,-1.006002 -1.16372,-0.991083 -1.17545,-0.977229 -1.18823,-0.96231 -1.19889,-0.948456 -1.21061,-0.93247 -1.22234,-0.918617 -1.23406,-0.903698 -1.24365,-0.887711 -1.25537,-0.872792 -1.26603,-0.856808 -1.27668,-0.841887 -1.28628,-0.824838 -1.29693,-0.809916 -1.30546,-0.793933 -1.31612,-0.777946 -1.32571,-0.761963 -1.33529,-0.74491 -1.34382,-0.728926 -1.35235,-0.71294 -1.36088,-0.694824 -1.37047,-0.679904 -1.37792,-0.661787 -1.38539,-0.644737 -1.3939,-0.628752 -1.40138,-0.610635 -1.40882,-0.593584 -1.41523,-0.576533 -1.42374,-0.559482 -1.42909,-0.5403 -1.43653,-0.524315 -1.44293,-0.506199 -1.44826,-0.488081 -1.45465,-0.471031 -1.45999,-0.452915 -1.46531,-0.434797 -1.47064,-0.416681 -1.47597,-0.398565 -1.4813,-0.380448 -1.48449,-0.362331 -1.48982,-0.344215 -1.49409,-0.326098 -1.49727,-0.306917 -1.50048,-0.289865 -1.50474,-0.269617 -1.50794,-0.252566 -1.51114,-0.233384 -1.51327,-0.215268 -1.51646,-0.196085 -1.51859,-0.177969 -1.51966,-0.158786 -1.52286,-0.14067 -1.52392,-0.121488 -1.52499,-0.103371 -1.52606,-0.08419 -1.52711,-0.06607 -1.5282,-0.04689 -1.52924,-0.02877 -1.52819,-0.0085 -1.52926,0.0085 -1.52818,0.02877 -1.52818,0.04689 -1.52713,0.06607 -1.52605,0.08419 -1.525,0.103371 -1.52391,0.121488 -1.52287,0.14067 -1.52072,0.158786 -1.51753,0.177969 -1.51646,0.196085 -1.51327,0.215268 -1.51113,0.233384 -1.50794,0.252566 -1.50474,0.269617 -1.50048,0.289865 -1.49835,0.306917 -1.493014,0.326098 -1.489822,0.344215 -1.484493,0.362331 -1.481297,0.380448 -1.475967,0.398565 -1.470639,0.417746 -1.465311,0.434798 -1.459982,0.451849 -1.454655,0.471031 -1.449325,0.488081 -1.441867,0.506199 -1.436537,0.524315 -1.429077,0.541365 -1.42375,0.558417 -1.415224,0.576533 -1.408829,0.593584 -1.401371,0.610635 -1.39391,0.628752 -1.38645,0.644737 -1.377925,0.661787 -1.3694,0.679904 -1.360874,0.694824 -1.352349,0.71294 -1.343823,0.728926 -1.335298,0.74491 -1.325707,0.761963 -1.316115,0.777946 -1.306524,0.793933 -1.295868,0.809916 -1.287343,0.825903 -1.27562,0.840822 -1.266029,0.856808 -1.255371,0.872792 -1.244715,0.888778 -1.232992,0.902631 -1.222336,0.918617 -1.210613,0.93247 -1.199956,0.948456 -1.187169,0.96231 -1.175446,0.977229 -1.163723,0.991083 -1.152001,1.006002 -1.139212,1.019857 -1.126425,1.032644 -1.113637,1.047565 -1.100847,1.061417 -1.086994,1.074207 -1.074207,1.086994 -1.061417,1.100847 -1.047565,1.113637 -1.032644,1.126425 -1.019857,1.139212 -1.006002,1.152001 -0.991083,1.163723 -0.977229,1.175446 -0.96231,1.187169 -0.948456,1.199956 -0.93247,1.210613 -0.918617,1.222336 -0.902631,1.232992 -0.888778,1.244715 -0.872792,1.255371 -0.856808,1.266029 -0.840821,1.27562 -0.825903,1.287343 -0.809916,1.295868 -0.793933,1.306524 -0.777946,1.316115 -0.761963,1.325707 -0.74491,1.335298 -0.728926,1.343823"
       id="path13"
       inkscape:connector-curvature="0"
       style="fill:none;stroke:#0c0c0c;stroke-width:0;stroke-linecap:butt;stroke-linejoin:round;stroke-opacity:1" />
    <path
       d="m 32.069713,77.161101 0.605306,-1.14987 0.61916,-1.142409 0.63408,-1.133884 0.646868,-1.126424 0.661789,-1.118966 0.674576,-1.110439 0.688429,-1.101913 0.701218,-1.094455 0.716137,-1.084863 0.72786,-1.075271 0.741713,-1.066747 0.754502,-1.05822 0.768357,-1.048631 0.780077,-1.039038 0.793933,-1.028382 0.805654,-1.019855 0.817378,-1.009201 0.83123,-0.999608 0.841887,-0.988952 0.855742,-0.97936 0.866399,-0.967638 0.87812,-0.958047 0.889844,-0.946324 0.902631,-0.935668 0.912223,-0.925011 0.925011,-0.912223 0.935668,-0.902631 0.946324,-0.889844 0.958047,-0.87812 0.967638,-0.866399 0.97936,-0.854676 0.988952,-0.842953 0.999608,-0.83123 1.009201,-0.817378 1.019855,-0.805654 1.028382,-0.793933 1.039038,-0.780077 1.048631,-0.768357 1.05822,-0.754502 1.066747,-0.741713 1.075271,-0.72786 1.084863,-0.716137 1.094455,-0.701218 1.101913,-0.688429 1.110439,-0.674576 1.118966,-0.661789 1.126424,-0.646868 1.133884,-0.63408 1.142409,-0.61916 1.14987,-0.605306 1.157329,-0.591453 1.163723,-0.577599 1.171183,-0.56268 1.178643,-0.548825 1.183972,-0.533906 1.191431,-0.518987 1.197825,-0.505133 1.203153,-0.489147 1.209548,-0.475293 1.214876,-0.460374 1.22127,-0.444389 1.226598,-0.430536 1.230861,-0.415615 1.23619,-0.39963 1.241518,-0.384711 1.24578,-0.369791 1.250044,-0.353806 1.254306,-0.338886 1.258568,-0.323967 1.26283,-0.307982 1.26603,-0.293062 1.26922,-0.277077 1.27243,-0.261092 1.27668,-0.245106 1.27882,-0.230188 1.28201,-0.214202 1.28415,-0.198216 1.28627,-0.183297 1.28842,-0.166246 1.29054,-0.151326 1.29266,-0.135342 1.29374,-0.119356 1.29587,-0.103372 1.29587,-0.08845 1.298,-0.0714 1.29799,-0.05648 1.29907,-0.03944 1.29907,-0.02344 1.29906,-0.0086 1.29907,0.0086 1.29905,0.02344 1.29907,0.03944 1.298,0.05648 1.298,0.0714 1.29587,0.08845 1.29587,0.103372 1.29373,0.119356 1.29268,0.135342 1.29054,0.151326 1.2884,0.166246 1.28627,0.183297 1.28415,0.198216 1.28201,0.214202 1.27882,0.230188 1.27562,0.245106 1.27349,0.261092 1.26923,0.277077 1.26602,0.293062 1.26284,0.307982 1.25856,0.323967 1.25432,0.338886 1.25004,0.353806 1.24577,0.369791 1.24153,0.384711 1.23618,0.39963 1.23087,0.415615 1.2266,0.42947 1.2202,0.445455 1.21594,0.460374 1.20954,0.475293 1.20315,0.489147 1.19784,0.505133 1.19035,0.518987 1.18504,0.533906 1.17759,0.548825 1.17224,0.56268 1.16373,0.577599 1.15732,0.591453 1.14987,0.605306 1.14135,0.61916 1.13495,0.63408 1.12642,0.646868 1.11896,0.661789 1.11045,0.674576 1.10191,0.688429 1.09339,0.701218 1.08487,0.715071 1.07633,0.728926 1.06675,0.741713 1.05821,0.754502 1.04864,0.768357 1.03904,0.780077 1.02837,0.793933 1.01987,0.805654 1.00919,0.817378 0.99961,0.83123 0.98895,0.841887 0.97936,0.854677 0.96764,0.867464 0.95804,0.87812 0.94633,0.889844 0.93567,0.901565 0.92394,0.913289 0.91329,0.925011 0.90264,0.935668 0.88984,0.946324 0.87812,0.958047 0.8664,0.967638 0.85467,0.97936 0.84296,0.988952 0.83017,0.999608 0.81843,1.009201 0.80566,1.019855 0.79393,1.028382 0.78008,1.039038 0.76728,1.048631 0.75558,1.05822 0.74171,1.066747 0.72786,1.075271 0.71614,1.084863 0.70121,1.094455 0.68843,1.101913 0.67458,1.110439 0.66179,1.1179 0.64687,1.12749 0.63408,1.133884 0.61915,1.142409 0.60531,1.14987 0.59146,1.157329 0.57759,1.163723 0.56269,1.171183 0.54882,1.178643 0.53391,1.183972 0.51898,1.191431 0.50407,1.197825 0.49021,1.203153 0.47529,1.209548 0.46039,1.214876 0.44438,1.22127 0.43053,1.226598 0.41562,1.230861 0.39963,1.23619 0.38471,1.241518 0.36979,1.24578 0.35381,1.250044 0.33889,1.254306 0.32396,1.258569 0.30798,1.26284 0.29307,1.26603 0.27707,1.26922 0.26109,1.27243 0.24511,1.27668 0.23019,1.27882 0.2142,1.28095 0.19822,1.28415 0.18329,1.28733 0.16625,1.28842 0.15133,1.29054 0.13534,1.29266 0.11935,1.29374 0.10337,1.2948 0.0885,1.29694 0.0714,1.29693 0.0565,1.29906 0.0394,1.29801 0.0245,1.30013 0.007,1.29906 -0.007,1.29907 -0.0245,1.29905 -0.0394,1.29906 -0.0565,1.298 -0.0714,1.298 -0.0885,1.29587 -0.10337,1.29587 -0.11935,1.29373 -0.13534,1.29268 -0.15133,1.29054 -0.16625,1.2884 -0.18329,1.28627 -0.19822,1.28415 -0.2142,1.28201 -0.23019,1.27882 -0.24511,1.27562 -0.26109,1.27349 -0.27707,1.26923 -0.29307,1.26602 -0.30798,1.26284 -0.32396,1.25856 -0.33889,1.25432 -0.35381,1.25004 -0.36979,1.24577 -0.38471,1.24153 -0.39963,1.23618 -0.41562,1.23087 -0.42946,1.2266 -0.44545,1.2202 -0.46039,1.21594 -0.47529,1.20954 -0.48914,1.20315 -0.50514,1.19784 -0.51898,1.19035 -0.53391,1.18504 -0.54882,1.17865 -0.56269,1.17118 -0.57759,1.16373 -0.59146,1.15732 -0.60531,1.14987 -0.61915,1.14242 -0.63408,1.13388 -0.64687,1.12642 -0.66179,1.11896 -0.67458,1.11045 -0.68843,1.10191 -0.70121,1.09445 -0.71508,1.08487 -0.72892,1.07527 -0.74171,1.06675 -0.7545,1.05821 -0.76836,1.04864 -0.78008,1.03904 -0.79393,1.02837 -0.80566,1.01987 -0.81737,1.00919 -0.83123,0.99961 -0.84189,0.98895 -0.85468,0.97936 -0.86746,0.96764 -0.87812,0.95804 -0.88984,0.94633 -0.90264,0.93567 -0.91222,0.92501 -0.92501,0.91222 -0.93567,0.90264 -0.94633,0.88984 -0.95804,0.87812 -0.96764,0.8664 -0.97936,0.85467 -0.98895,0.84296 -0.99961,0.83123 -1.00919,0.81737 -1.01987,0.80566 -1.02837,0.79393 -1.03904,0.78008 -1.04864,0.76836 -1.05821,0.7545 -1.06675,0.74171 -1.07527,0.72786 -1.08487,0.71614 -1.09445,0.70121 -1.10191,0.68843 -1.11045,0.67458 -1.1179,0.66179 -1.12748,0.64687 -1.13388,0.63408 -1.14242,0.61915 -1.14987,0.60531 -1.15732,0.59146 -1.16373,0.57759 -1.17118,0.56269 -1.17865,0.54882 -1.18396,0.53391 -1.19143,0.51898 -1.19784,0.50514 -1.20315,0.48914 -1.20954,0.47529 -1.21488,0.46039 -1.22126,0.44438 -1.2266,0.43053 -1.23087,0.41562 -1.23618,0.39963 -1.24153,0.38471 -1.24577,0.36979 -1.25004,0.35381 -1.25432,0.33889 -1.25856,0.32396 -1.26284,0.30798 -1.26602,0.29307 -1.26923,0.27707 -1.27243,0.26109 -1.27668,0.24511 -1.27882,0.23019 -1.28095,0.2142 -1.28521,0.19822 -1.28627,0.18329 -1.2884,0.16625 -1.29054,0.15133 -1.29268,0.13534 -1.29373,0.11935 -1.29481,0.10337 -1.29693,0.0885 -1.298,0.0714 -1.298,0.0565 -1.29907,0.0394 -1.29905,0.0245 -1.29907,0.007 -1.29906,-0.007 -1.29907,-0.0245 -1.29907,-0.0394 -1.29799,-0.0565 -1.298,-0.0714 -1.29587,-0.0885 -1.29587,-0.10337 -1.29374,-0.11935 -1.29266,-0.13534 -1.29054,-0.15133 -1.28842,-0.16625 -1.28627,-0.18329 -1.28415,-0.19822 -1.28201,-0.2142 -1.27882,-0.23019 -1.27668,-0.24511 -1.27243,-0.26109 -1.26922,-0.27707 -1.26603,-0.29307 -1.26283,-0.30798 -1.258568,-0.32396 -1.254306,-0.33889 -1.250044,-0.35381 -1.24578,-0.36979 -1.241518,-0.38471 -1.23619,-0.39963 -1.230861,-0.41562 -1.226598,-0.42946 -1.22127,-0.44545 -1.214876,-0.46039 -1.209548,-0.47529 -1.203153,-0.48914 -1.197825,-0.50514 -1.191431,-0.51898 -1.183972,-0.53391 -1.178643,-0.54882 -1.171183,-0.56269 -1.163723,-0.57759 -1.157329,-0.59146 -1.14987,-0.60531 -1.142409,-0.61915 -1.133884,-0.63408 -1.126424,-0.64687 -1.118966,-0.66179 -1.110439,-0.67458 -1.101913,-0.68843 -1.094455,-0.70121 -1.084863,-0.71508 -1.075271,-0.72892 -1.066747,-0.74171 -1.05822,-0.7545 -1.048631,-0.76836 -1.039038,-0.78008 -1.028382,-0.79393 -1.019855,-0.80566 -1.009201,-0.81737 -0.999608,-0.83123 -0.988952,-0.84189 -0.97936,-0.85574 -0.967638,-0.8664 -0.958047,-0.87812 -0.946324,-0.88984 -0.935668,-0.90264 -0.925011,-0.91222 -0.912223,-0.92501 -0.902631,-0.93567 -0.889844,-0.94633 -0.87812,-0.95804 -0.866399,-0.96764 -0.855742,-0.97936 -0.841887,-0.98895 -0.83123,-0.99961 -0.817378,-1.00919 -0.805654,-1.01987 -0.793933,-1.02837 -0.780077,-1.03904 -0.768357,-1.04864 -0.754502,-1.05821 -0.741713,-1.06675 -0.72786,-1.07527 -0.716137,-1.08487 -0.701218,-1.09445 -0.688429,-1.10191 -0.674576,-1.11045 -0.661789,-1.11896 -0.646868,-1.12642 -0.63408,-1.13388 -0.61916,-1.14242 -0.605306,-1.14987 -0.591453,-1.15732 -0.577599,-1.16373 -0.56268,-1.17118 -0.548825,-1.17865 -0.533906,-1.18396 -0.518987,-1.19143 -0.505133,-1.19784 -0.489147,-1.20315 -0.475293,-1.20954 -0.460374,-1.21488 -0.444389,-1.22126 -0.430536,-1.2266 -0.415615,-1.23087 -0.39963,-1.23618 -0.384711,-1.24153 -0.369791,-1.24577 -0.353806,-1.25004 -0.338886,-1.25432 -0.323967,-1.25856 -0.307982,-1.26284 -0.293062,-1.26602 -0.277077,-1.26923 -0.261092,-1.27243 -0.245106,-1.27668 -0.230188,-1.27882 -0.214201,-1.28201 -0.198216,-1.28415 -0.183297,-1.28627 -0.166246,-1.2884 -0.151326,-1.29054 -0.135342,-1.29268 -0.119356,-1.29373 -0.103372,-1.29587 -0.08845,-1.29587 -0.0714,-1.298 -0.05648,-1.298 -0.03944,-1.29906 -0.02344,-1.29905 -0.0086,-1.29907 0.0086,-1.29906 0.02344,-1.29907 0.03944,-1.29907 0.05648,-1.29799 0.0714,-1.298 0.08845,-1.29587 0.103372,-1.29587 0.119356,-1.29374 0.135342,-1.29266 0.151326,-1.29054 0.166246,-1.28842 0.183297,-1.28627 0.198216,-1.28415 0.214201,-1.28201 0.230188,-1.27882 0.245106,-1.27668 0.261092,-1.27243 0.277077,-1.26922 0.293062,-1.26603 0.307982,-1.26284 0.323967,-1.258569 0.338886,-1.254306 0.353806,-1.250044 0.369791,-1.24578 0.384711,-1.241518 0.39963,-1.23619 0.415615,-1.230861 0.430536,-1.226598 0.444389,-1.22127 0.460374,-1.214876 0.475293,-1.209548 0.489147,-1.203153 0.505133,-1.197825 0.518987,-1.191431 0.533906,-1.183972 0.548825,-1.178643 0.56268,-1.171183 0.577599,-1.163723 0.591453,-1.157329"
       id="path15"
       inkscape:connector-curvature="0"
       style="fill:none;stroke:#0c0c0c;stroke-width:0;stroke-linecap:butt;stroke-linejoin:round;stroke-opacity:1" />
    <rect
       style="fill:#000000;fill-opacity:1;stroke:none"
       id="rect4234"
       width="99.715813"
       height="115.17789"
       x="75.072327"
       y="64.940117" />
    <path
       inkscape:connector-curvature="0"
       style="fill:#ffffff;fill-opacity:1;stroke:none;stroke-width:0;stroke-linecap:butt;stroke-linejoin:round;stroke-opacity:1"
       d="m 200,102.882 0,10 0,10 0,10 0,10 0,4.118 8.94401,-4.472 8.94401,-4.472 8.94501,-4.473 8.944,-4.472 8.34101,-4.17 -8.94501,-4.472 -8.94401,-4.472 -8.944,-4.472 -8.94501,-4.473 L 200,102.882"
       id="path11-7" />
    <path
       inkscape:connector-curvature="0"
       style="fill:#ffffff;fill-opacity:1;stroke:none;stroke-width:0;stroke-linecap:butt;stroke-linejoin:round;stroke-opacity:1"
       d="m 50.118035,147 0,-10 0,-10 0,-10 0,-10 0,-4.118 -8.944,4.472 -8.944012,4.472 -8.945008,4.473 -8.944008,4.472 L 6,124.941 l 8.945008,4.472 8.944007,4.472 8.944008,4.472 8.944012,4.473 8.341,4.17"
       id="path11-8" />
    <path
       style="fill:#ffffff;fill-opacity:1;stroke:none"
       d="M 103,79.999999 103,150 l 0,20 20,0 38,0 0,-20 -38,0 0,-70.000001 -20,0 z"
       id="rect4158"
       inkscape:connector-curvature="0" />
  </g>
</svg>
