<svg width="24" height="24" viewBox="0 0 24 24" fill="none" xmlns="http://www.w3.org/2000/svg">
<path d="M21.7101 8.70999C22.9601 7.45999 22.3901 5.99999 21.7101 5.28999L18.7101 2.28999C17.4501 1.03999 16.0001 1.60999 15.2901 2.28999L13.5901 3.99999H11.0001C9.10005 3.99999 8.00005 4.99999 7.44005 6.14999L3.00005 10.59V14.59L2.29005 15.29C1.04005 16.55 1.61005 18 2.29005 18.71L5.29005 21.71C5.83005 22.25 6.41005 22.45 6.96005 22.45C7.67005 22.45 8.32005 22.1 8.71005 21.71L11.4101 19H15.0001C16.7001 19 17.5601 17.94 17.8701 16.9C19.0001 16.6 19.6201 15.74 19.8701 14.9C21.4201 14.5 22.0001 13.03 22.0001 12V8.99999H21.4101L21.7101 8.70999ZM20.0001 12C20.0001 12.45 19.8101 13 19.0001 13H18.0001V14C18.0001 14.45 17.8101 15 17.0001 15H16.0001V16C16.0001 16.45 15.8101 17 15.0001 17H10.5901L7.31005 20.28C7.00005 20.57 6.82005 20.4 6.71005 20.29L3.72005 17.31C3.43005 17 3.60005 16.82 3.71005 16.71L5.00005 15.41V11.41L7.00005 9.40999V11C7.00005 12.21 7.80005 14 10.0001 14C12.2001 14 13.0001 12.21 13.0001 11H20.0001V12ZM20.2901 7.28999L18.5901 8.99999H11.0001V11C11.0001 11.45 10.8101 12 10.0001 12C9.19005 12 9.00005 11.45 9.00005 11V7.99999C9.00005 7.53999 9.17005 5.99999 11.0001 5.99999H14.4101L16.6901 3.71999C17.0001 3.42999 17.1801 3.59999 17.2901 3.70999L20.2801 6.68999C20.5701 6.99999 20.4001 7.17999 20.2901 7.28999Z" fill="#FF6600" fill-opacity="0.8"/>
</svg>
