<?xml version="1.0" encoding="UTF-8" standalone="no"?>
<svg
   xmlns:dc="http://purl.org/dc/elements/1.1/"
   xmlns:cc="http://creativecommons.org/ns#"
   xmlns:rdf="http://www.w3.org/1999/02/22-rdf-syntax-ns#"
   xmlns:svg="http://www.w3.org/2000/svg"
   xmlns="http://www.w3.org/2000/svg"
   xmlns:sodipodi="http://sodipodi.sourceforge.net/DTD/sodipodi-0.dtd"
   xmlns:inkscape="http://www.inkscape.org/namespaces/inkscape"
   height="250"
   version="1.1"
   width="250"
   viewBox="0 0 250 250"
   id="svg4151"
   inkscape:version="0.91 r13725"
   sodipodi:docname="x_btn_rt.svg">
  <metadata
     id="metadata4170">
    <rdf:RDF>
      <cc:Work
         rdf:about="">
        <dc:format>image/svg+xml</dc:format>
        <dc:type
           rdf:resource="http://purl.org/dc/dcmitype/StillImage" />
        <dc:title />
      </cc:Work>
    </rdf:RDF>
  </metadata>
  <defs
     id="defs4168" />
  <sodipodi:namedview
     pagecolor="#ffffff"
     bordercolor="#666666"
     borderopacity="1"
     objecttolerance="10"
     gridtolerance="10"
     guidetolerance="10"
     inkscape:pageopacity="0"
     inkscape:pageshadow="2"
     inkscape:window-width="1920"
     inkscape:window-height="1018"
     id="namedview4166"
     showgrid="false"
     inkscape:zoom="2.5519393"
     inkscape:cx="144.84367"
     inkscape:cy="119.56076"
     inkscape:window-x="-8"
     inkscape:window-y="-8"
     inkscape:window-maximized="1"
     inkscape:current-layer="fills" />
  <g
     id="RenderLayer_LineSet"
     inkscape:groupmode="lineset"
     inkscape:label="RenderLayer_LineSet">
    <g
       id="fills"
       inkscape:groupmode="layer"
       inkscape:label="fills">
      <path
         d="M 128.21802,0.33981902 125,0.29954079 l -3.21802,0.0402782 -3.19788,0.12189476 -3.17562,0.20139135 -3.1555,0.28088793 -3.1311,0.35720464 -3.10778,0.4356413 -3.08342,0.510898 -3.0569,0.5861548 -3.029349,0.6592917 -3.002851,0.7334884 -2.973172,0.8045055 -2.943494,0.8765823 -2.912754,0.9454794 -2.880957,1.0154363 -2.848097,1.0832735 -2.814179,1.1500501 -2.779201,1.215768 -2.744222,1.281485 -2.707124,1.346142 -2.668965,1.408679 -2.630807,1.471218 -2.591588,1.531634 -2.550251,1.593111 -2.508912,1.651409 -2.466514,1.709706 -2.423056,1.768004 -2.378538,1.823122 -2.332959,1.8793 -2.286322,1.933356 -2.238624,1.986355 -2.189865,2.039352 -2.141108,2.090231 -2.090231,2.141108 -2.039352,2.189865 -1.986355,2.238624 -1.933356,2.286322 -1.8793,2.332959 -1.823122,2.378538 -1.768004,2.423056 -1.709706,2.466514 -1.651409,2.508912 -1.593111,2.550251 -1.531634,2.591588 -1.471218,2.630807 -1.408679,2.668965 -1.346142,2.707124 -1.281485,2.744222 -1.215768,2.779201 -1.1500501,2.815239 -1.0832735,2.848097 -1.0154363,2.879897 -0.9454794,2.912754 -0.8765823,2.943494 -0.8045055,2.973172 -0.7334884,3.002851 -0.6592917,3.029349 -0.5861548,3.0569 -0.510898,3.08342 -0.4356413,3.10778 -0.35720464,3.1311 -0.28088793,3.1555 -0.20139135,3.17668 -0.12189476,3.19682 -0.0402782,3.21802 0.0402782,3.21802 0.12189476,3.19788 0.20139135,3.17562 0.28088793,3.1555 0.35720464,3.1311 0.4356413,3.10778 0.510898,3.08342 0.5861548,3.0569 0.6592917,3.02936 0.7334884,3.00284 0.8045055,2.97318 0.8765823,2.94348 0.9454794,2.91276 1.0154363,2.88096 1.0832735,2.8481 1.1500501,2.81418 1.215768,2.7792 1.281485,2.74422 1.346142,2.70712 1.408679,2.66896 1.471218,2.63082 1.531634,2.59158 1.593111,2.55026 1.651409,2.5089 1.709706,2.46652 1.768004,2.42306 1.823122,2.37854 1.8793,2.33296 1.933356,2.28632 1.986355,2.23862 2.039352,2.18986 2.090231,2.14112 2.141108,2.09022 2.189865,2.03936 2.238624,1.98634 2.286322,1.93336 2.332959,1.8793 2.378538,1.82312 2.423056,1.768 2.466514,1.70972 2.508912,1.6514 2.550251,1.59312 2.591588,1.53164 2.630807,1.4712 2.668965,1.40868 2.707124,1.34614 2.744222,1.2815 2.779201,1.21576 2.815239,1.15006 2.848097,1.08326 2.879897,1.01544 2.912754,0.94548 2.943494,0.87658 2.973172,0.8045 3.002851,0.7335 3.029349,0.65928 3.0569,0.58616 3.08342,0.5109 3.10778,0.43564 3.1311,0.3572 3.1555,0.2809 3.17668,0.20138 3.19682,0.1219 3.21802,0.0402 3.21802,-0.0402 3.19788,-0.1219 3.17562,-0.20138 3.1555,-0.2809 3.1311,-0.3572 3.10778,-0.43564 3.08342,-0.5109 3.0569,-0.58616 3.02936,-0.65928 3.00284,-0.7335 2.97318,-0.8045 2.94348,-0.87658 2.91276,-0.94548 2.88096,-1.01544 2.8481,-1.08326 2.81418,-1.15006 2.7792,-1.21576 2.74422,-1.2815 2.70712,-1.34614 2.66896,-1.40868 2.63082,-1.4712 2.59158,-1.53164 2.55026,-1.59312 2.5089,-1.6514 2.46652,-1.70972 2.42306,-1.768 2.37854,-1.82312 2.33296,-1.8793 2.28632,-1.93336 2.23862,-1.98634 2.18986,-2.03936 2.14112,-2.09022 2.09022,-2.14112 2.03936,-2.18986 1.98634,-2.23862 1.93336,-2.28632 1.8793,-2.33296 1.82312,-2.37854 1.768,-2.42306 1.70972,-2.46652 1.6514,-2.5089 1.59312,-2.55026 1.53164,-2.59158 1.4712,-2.63082 1.40868,-2.66896 1.34614,-2.70712 1.2815,-2.74422 1.21576,-2.7792 1.15006,-2.81524 1.08326,-2.8481 1.01544,-2.8799 0.94548,-2.91276 0.87658,-2.94348 0.8045,-2.97318 0.7335,-3.00284 0.65928,-3.02936 0.58616,-3.0569 0.5109,-3.08342 0.43564,-3.10778 0.3572,-3.1311 0.2809,-3.1555 0.20138,-3.17668 0.1219,-3.19682 0.0402,-3.21802 -0.0402,-3.21802 -0.1219,-3.19788 -0.20138,-3.17562 -0.2809,-3.1555 -0.3572,-3.1311 -0.43564,-3.10778 -0.5109,-3.08342 -0.58616,-3.0569 -0.65928,-3.029349 -0.7335,-3.002851 -0.8045,-2.973172 -0.87658,-2.943494 -0.94548,-2.912754 -1.01544,-2.880957 -1.08326,-2.848097 -1.15006,-2.814179 -1.21576,-2.779201 -1.2815,-2.744222 -1.34614,-2.707124 -1.40868,-2.668965 -1.4712,-2.630807 -1.53164,-2.591588 -1.59312,-2.550251 -1.6514,-2.508912 -1.70972,-2.466514 -1.768,-2.423056 -1.82312,-2.378538 -1.8793,-2.332959 -1.93336,-2.286322 -1.98634,-2.238624 -2.03936,-2.189865 -2.09022,-2.141108 -2.14112,-2.090231 -2.18986,-2.039352 -2.23862,-1.986355 -2.28632,-1.933356 -2.33296,-1.8793 -2.37854,-1.823122 -2.42306,-1.768004 -2.46652,-1.709706 -2.5089,-1.651409 -2.55026,-1.593111 -2.59158,-1.531634 -2.63082,-1.471218 -2.66896,-1.408679 -2.70712,-1.346142 -2.74422,-1.281485 -2.7792,-1.215768 -2.81524,-1.1500501 -2.8481,-1.0832735 -2.8799,-1.0154363 -2.91276,-0.9454794 -2.94348,-0.8765823 -2.97318,-0.8045055 -3.00284,-0.7334884 -3.02936,-0.6592917 -3.0569,-0.5861548 -3.08342,-0.510898 -3.10778,-0.4356413 -3.1311,-0.35720464 -3.1555,-0.28088793 -3.17668,-0.20139135 -3.19682,-0.12189476 z"
         fill_rule="evenodd"
         id="path4155"
         style="fill:#000000;fill-opacity:1;stroke:none"
         inkscape:connector-curvature="0" />
      <path
         style="fill:#ffffff;fill-opacity:1;stroke:none;stroke-width:20;stroke-miterlimit:4;stroke-dasharray:none;stroke-opacity:1"
         d="m 135,79.999996 0,20 19,0 0,70.000004 20,0 0,-70.000004 19,0 0,-20 -19,0 -20,0 -19,0 z"
         id="rect4139"
         inkscape:connector-curvature="0" />
      <g
         id="g4147"
         transform="matrix(0.86454102,0,0,0.86454445,-32.047725,16.22775)">
        <path
           style="fill:#ffffff;fill-opacity:1;stroke:none;stroke-width:0;stroke-linecap:butt;stroke-linejoin:round;stroke-opacity:1"
           id="path11-88"
           d="m 103,72.606415 0,8.031881 0,8.031875 0,8.031929 0,8.03186 0,8.03189 0,8.03187 0,8.03188 0,8.03188 0,8.03189 0,8.03188 0,8.03188 0,8.03188 0,8.87605 8.0319,0 8.03187,0 1.79112,0 0,-8.03189 0,-8.03188 0,-8.03188 0,-8.03189 0,-8.2624 8.0319,0 1.47143,0 3.5782,7.19093 3.579,7.19016 3.57903,7.19095 3.57821,7.19014 3.579,7.19095 2.20796,4.43681 8.03191,0 8.03189,0 3.74927,0 -1.05217,-1.90275 -1.2353,-2.25134 -1.42003,-2.59992 -1.604,-2.94932 -1.78788,-3.2987 -1.97183,-3.64728 -2.15577,-3.99584 -2.34048,-4.34525 -2.52361,-4.69465 -2.70757,-5.04322 -2.89227,-5.3918 -3.07541,-5.74119 1.22406,-0.706 1.17748,-0.74938 1.12928,-0.79274 1.0835,-0.83612 1.0353,-0.87949 0.98794,-0.92287 0.94133,-0.96704 0.89394,-1.0104 0.84658,-1.05379 0.79998,-1.09715 0.75258,-1.14053 0.70518,-1.1839 0.653,-1.22004 0.59598,-1.24896 0.53973,-1.27706 0.48271,-1.30598 0.42569,-1.3341 0.36946,-1.36301 0.31244,-1.39111 0.25542,-1.41924 0.19919,-1.44815 0.14219,-1.47707 0.0851,-1.50517 0.0281,-1.53328 -0.0569,-2.59591 -0.17188,-2.482648 -0.28595,-2.371016 -0.39998,-2.257779 -0.51485,-2.146132 -0.62971,-2.032867 -0.74292,-1.920428 -0.85862,-1.808776 -0.97185,-1.695522 -1.08672,-1.58309 -1.20156,-1.470633 -1.31563,-1.358201 -1.43451,-1.247353 -1.55898,-1.139718 -1.68269,-1.030489 -1.80636,-0.922069 -1.93087,-0.813625 -2.05455,-0.705194 -2.17906,-0.596773 -2.30193,-0.488342 -2.42725,-0.37991 -2.55012,-0.270669 -2.67462,-0.163047 -2.79912,-0.05465 -8.03189,0 -8.03189,0 -8.03188,0 -0.44014,0"
           inkscape:connector-curvature="0" />
        <path
           style="fill:#000000;fill-opacity:1;stroke:none;stroke-width:0;stroke-linecap:butt;stroke-linejoin:round;stroke-opacity:1"
           id="path13-9-8"
           d="m 120.71868,90.548099 5.41351,0 1.40879,0.02238 1.34613,0.06584 1.28269,0.110015 1.22004,0.154212 1.1574,0.197587 1.09474,0.24176 1.03131,0.286731 0.96945,0.329307 0.906,0.374291 0.84334,0.417665 0.7807,0.462624 0.71726,0.506016 0.6578,0.557413 0.6008,0.618472 0.54376,0.677892 0.48591,0.737353 0.4289,0.798361 0.37188,0.857798 0.31404,0.918049 0.25784,0.97828 0.19998,1.037715 0.14293,1.09798 0.086,1.15818 0.0289,1.21762 -0.0281,1.2321 -0.0844,1.17587 -0.13971,1.11965 -0.19598,1.06422 -0.2522,1.008 -0.30762,0.95178 -0.36384,0.89555 -0.42007,0.84013 -0.4763,0.78393 -0.53171,0.72848 -0.58793,0.67148 -0.64415,0.61605 -0.70279,0.56382 -0.76465,0.51404 -0.82568,0.46585 -0.88753,0.41605 -0.94937,0.36786 -1.0104,0.31807 -1.07227,0.26987 -1.13408,0.22006 -1.19596,0.17188 -1.25699,0.12209 -1.31883,0.0738 -1.37988,0.024 -5.75969,0 0,-8.03187 0,-8.03189 0,-8.031882 0,-4.342856"
           inkscape:connector-curvature="0" />
      </g>
    </g>
    <g
       id="strokes"
       inkscape:groupmode="layer"
       inkscape:label="strokes">
      <path
         d=" M 128.036, 7.391 125.000, 7.353 121.964, 7.391 118.947, 7.506 115.951, 7.696 112.974, 7.961 110.020, 8.298 107.088, 8.709 104.179, 9.191 101.295, 9.744 98.437, 10.366 95.604, 11.058 92.799, 11.817 90.022, 12.644 87.274, 13.536 84.556, 14.494 81.869, 15.516 79.214, 16.601 76.592, 17.748 74.003, 18.957 71.449, 20.227 68.931, 21.556 66.449, 22.944 64.004, 24.389 61.598, 25.892 59.231, 27.450 56.904, 29.063 54.618, 30.731 52.374, 32.451 50.173, 34.224 48.016, 36.048 45.904, 37.922 43.838, 39.846 41.818, 41.818 39.846, 43.838 37.922, 45.904 36.048, 48.016 34.224, 50.173 32.451, 52.374 30.731, 54.618 29.063, 56.904 27.450, 59.231 25.892, 61.598 24.389, 64.004 22.944, 66.449 21.556, 68.931 20.227, 71.449 18.957, 74.003 17.748, 76.592 16.601, 79.214 15.516, 81.870 14.494, 84.557 13.536, 87.274 12.644, 90.022 11.817, 92.799 11.058, 95.604 10.366, 98.437 9.744, 101.295 9.191, 104.179 8.709, 107.088 8.298, 110.020 7.961, 112.974 7.696, 115.951 7.506, 118.948 7.391, 121.964 7.353, 125.000 7.391, 128.036 7.506, 131.053 7.696, 134.049 7.961, 137.026 8.298, 139.980 8.709, 142.912 9.191, 145.821 9.744, 148.705 10.366, 151.563 11.058, 154.396 11.817, 157.201 12.644, 159.978 13.536, 162.726 14.494, 165.444 15.516, 168.131 16.601, 170.786 17.748, 173.408 18.957, 175.997 20.227, 178.551 21.556, 181.069 22.944, 183.551 24.389, 185.996 25.892, 188.402 27.450, 190.769 29.063, 193.096 30.731, 195.382 32.451, 197.626 34.224, 199.827 36.048, 201.984 37.922, 204.096 39.846, 206.162 41.818, 208.182 43.838, 210.154 45.904, 212.078 48.016, 213.952 50.173, 215.776 52.374, 217.549 54.618, 219.269 56.904, 220.937 59.231, 222.550 61.598, 224.108 64.004, 225.611 66.449, 227.056 68.931, 228.444 71.449, 229.773 74.003, 231.043 76.592, 232.252 79.214, 233.399 81.870, 234.484 84.557, 235.506 87.274, 236.464 90.022, 237.356 92.799, 238.183 95.604, 238.942 98.437, 239.634 101.295, 240.256 104.179, 240.809 107.088, 241.291 110.020, 241.702 112.974, 242.039 115.951, 242.304 118.948, 242.494 121.964, 242.609 125.000, 242.647 128.036, 242.609 131.053, 242.494 134.049, 242.304 137.026, 242.039 139.980, 241.702 142.912, 241.291 145.821, 240.809 148.705, 240.256 151.563, 239.634 154.396, 238.942 157.201, 238.183 159.978, 237.356 162.726, 236.464 165.444, 235.506 168.131, 234.484 170.786, 233.399 173.408, 232.252 175.997, 231.043 178.551, 229.773 181.069, 228.444 183.551, 227.056 185.996, 225.611 188.402, 224.108 190.769, 222.550 193.096, 220.937 195.382, 219.269 197.626, 217.549 199.827, 215.776 201.984, 213.952 204.096, 212.078 206.162, 210.154 208.182, 208.182 210.154, 206.162 212.078, 204.096 213.952, 201.984 215.776, 199.827 217.549, 197.626 219.269, 195.382 220.937, 193.096 222.550, 190.769 224.108, 188.402 225.611, 185.996 227.056, 183.551 228.444, 181.069 229.773, 178.551 231.043, 175.997 232.252, 173.408 233.399, 170.786 234.484, 168.130 235.506, 165.443 236.464, 162.726 237.356, 159.978 238.183, 157.201 238.942, 154.396 239.634, 151.563 240.256, 148.705 240.809, 145.821 241.291, 142.912 241.702, 139.980 242.039, 137.026 242.304, 134.049 242.494, 131.052 242.609, 128.036 242.647, 125.000 242.609, 121.964 242.494, 118.947 242.304, 115.951 242.039, 112.974 241.702, 110.020 241.291, 107.088 240.809, 104.179 240.256, 101.295 239.634, 98.437 238.942, 95.604 238.183, 92.799 237.356, 90.022 236.464, 87.274 235.506, 84.556 234.484, 81.869 233.399, 79.214 232.252, 76.592 231.043, 74.003 229.773, 71.449 228.444, 68.931 227.056, 66.449 225.611, 64.004 224.108, 61.598 222.550, 59.231 220.937, 56.904 219.269, 54.618 217.549, 52.374 215.776, 50.173 213.952, 48.016 212.078, 45.904 210.154, 43.838 208.182, 41.818 206.162, 39.846 204.096, 37.922 201.984, 36.048 199.827, 34.224 197.626, 32.451 195.382, 30.731 193.096, 29.063 190.769, 27.450 188.402, 25.892 185.996, 24.389 183.551, 22.944 181.069, 21.556 178.551, 20.227 175.997, 18.957 173.408, 17.748 170.786, 16.601 168.130, 15.516 165.443, 14.494 162.726, 13.536 159.978, 12.644 157.201, 11.817 154.396, 11.058 151.563, 10.366 148.705, 9.744 145.821, 9.191 142.912, 8.709 139.980, 8.298 137.026, 7.961 134.049, 7.696 131.052, 7.506 128.036, 7.391 "
         fill="none"
         stroke="rgb(12, 12, 12)"
         stroke-linecap="butt"
         stroke-linejoin="round"
         stroke-opacity="1.0"
         stroke-width="0.0"
         id="path4164" />
    </g>
  </g>
</svg>
