<?xml version="1.0" encoding="UTF-8" standalone="no"?>
<svg
   xmlns:dc="http://purl.org/dc/elements/1.1/"
   xmlns:cc="http://creativecommons.org/ns#"
   xmlns:rdf="http://www.w3.org/1999/02/22-rdf-syntax-ns#"
   xmlns:svg="http://www.w3.org/2000/svg"
   xmlns="http://www.w3.org/2000/svg"
   xmlns:sodipodi="http://sodipodi.sourceforge.net/DTD/sodipodi-0.dtd"
   xmlns:inkscape="http://www.inkscape.org/namespaces/inkscape"
   height="250"
   version="1.1"
   width="250"
   viewBox="0 0 250 250"
   id="svg2"
   inkscape:version="0.91 r13725"
   sodipodi:docname="x_btn_b.svg">
  <metadata
     id="metadata23">
    <rdf:RDF>
      <cc:Work
         rdf:about="">
        <dc:format>image/svg+xml</dc:format>
        <dc:type
           rdf:resource="http://purl.org/dc/dcmitype/StillImage" />
        <dc:title />
      </cc:Work>
    </rdf:RDF>
  </metadata>
  <defs
     id="defs21" />
  <sodipodi:namedview
     pagecolor="#ffffff"
     bordercolor="#666666"
     borderopacity="1"
     objecttolerance="10"
     gridtolerance="10"
     guidetolerance="10"
     inkscape:pageopacity="0"
     inkscape:pageshadow="2"
     inkscape:window-width="1920"
     inkscape:window-height="1018"
     id="namedview19"
     showgrid="false"
     inkscape:zoom="2.6700352"
     inkscape:cx="44.430563"
     inkscape:cy="147.82377"
     inkscape:window-x="-8"
     inkscape:window-y="-8"
     inkscape:window-maximized="1"
     inkscape:current-layer="fills" />
  <g
     id="RenderLayer_LineSet"
     inkscape:groupmode="lineset"
     inkscape:label="RenderLayer_LineSet">
    <g
       id="fills"
       inkscape:groupmode="layer"
       inkscape:label="fills">
      <path
         d="m 128.41173,0.27734791 -3.22447,-0.0403589 -3.22446,0.0403589 -3.2043,0.12213895 -3.18197,0.20179481 -3.16182,0.28145063 -3.13738,0.3579202 -3.11401,0.436514 -3.08958,0.5119216 -3.06303,0.587329 -3.03542,0.6606125 -3.008867,0.7349579 -2.979128,0.8061171 -2.94939,0.8783384 -2.91859,0.9473734 -2.886728,1.0174707 -2.853803,1.0854435 -2.819817,1.1523544 -2.784769,1.218204 -2.749719,1.284051 -2.712547,1.348839 -2.674312,1.411502 -2.636077,1.474165 -2.59678,1.534702 -2.55536,1.596303 -2.513938,1.654717 -2.471455,1.713132 -2.427911,1.771545 -2.383302,1.826774 -2.337633,1.883064 -2.290902,1.937231 -2.243109,1.990333 -2.194253,2.043438 -2.145397,2.094418 -2.094418,2.145397 -2.043438,2.194253 -1.990333,2.243109 -1.937231,2.290902 -1.883064,2.337633 -1.826774,2.383302 -1.771545,2.427911 -1.713132,2.471455 -1.654717,2.513938 -1.596303,2.55536 -1.534702,2.59678 -1.474165,2.636077 -1.411502,2.674312 -1.348839,2.712547 -1.284051,2.749719 -1.218204,2.784769 -1.1523544,2.820878 -1.0854435,2.853804 -1.0174707,2.885666 -0.9473734,2.91859 -0.8783384,2.94939 -0.8061171,2.979128 -0.7349579,3.008867 -0.6606125,3.03542 -0.587329,3.06303 -0.5119216,3.08958 -0.436514,3.11401 -0.3579202,3.13738 -0.28145063,3.16182 -0.20179481,3.18304 -0.12213895,3.20323 -0.0403589,3.22446 0.0403589,3.22447 0.12213895,3.2043 0.20179481,3.18197 0.28145063,3.16182 0.3579202,3.13738 0.436514,3.114 0.5119216,3.08959 0.587329,3.06303 0.6606125,3.03542 0.7349579,3.00887 0.8061171,2.97912 0.8783384,2.9494 0.9473734,2.91858 1.0174707,2.88673 1.0854435,2.85381 1.1523544,2.81981 1.218204,2.78477 1.284051,2.74972 1.348839,2.71255 1.411502,2.67431 1.474165,2.63608 1.534702,2.59678 1.596303,2.55536 1.654717,2.51393 1.713132,2.47146 1.771545,2.42791 1.826774,2.3833 1.883064,2.33763 1.937231,2.29091 1.990333,2.24311 2.043438,2.19425 2.094418,2.14539 2.145397,2.09442 2.194253,2.04344 2.243109,1.99034 2.290902,1.93723 2.337633,1.88306 2.383302,1.82678 2.427911,1.77154 2.471455,1.71314 2.513938,1.6547 2.55536,1.59631 2.59678,1.5347 2.636077,1.47417 2.674312,1.4115 2.712547,1.34884 2.749719,1.28405 2.784769,1.2182 2.820878,1.15236 2.853804,1.08544 2.885666,1.01747 2.91859,0.94737 2.94939,0.87834 2.979128,0.80612 3.008867,0.73496 3.03542,0.66061 3.06303,0.58733 3.08958,0.51192 3.11401,0.43652 3.13738,0.35791 3.16182,0.28146 3.18304,0.20179 3.20323,0.12214 3.22446,0.0403 3.22447,-0.0403 3.2043,-0.12214 3.18197,-0.20179 3.16182,-0.28146 3.13738,-0.35791 3.114,-0.43652 3.08959,-0.51192 3.06303,-0.58733 3.03542,-0.66061 3.00887,-0.73496 2.97912,-0.80612 2.9494,-0.87834 2.91858,-0.94737 2.88673,-1.01747 2.85381,-1.08544 2.81981,-1.15236 2.78477,-1.2182 2.74972,-1.28405 2.71255,-1.34884 2.67431,-1.4115 2.63608,-1.47417 2.59678,-1.5347 2.55536,-1.59631 2.51393,-1.6547 2.47146,-1.71314 2.42791,-1.77154 2.3833,-1.82678 2.33763,-1.88306 2.29091,-1.93723 2.24311,-1.99034 2.19425,-2.04344 2.14539,-2.09442 2.09442,-2.14539 2.04344,-2.19425 1.99034,-2.24311 1.93723,-2.29091 1.88306,-2.33763 1.82678,-2.3833 1.77154,-2.42791 1.71314,-2.47146 1.6547,-2.51393 1.59631,-2.55536 1.5347,-2.59678 1.47417,-2.63608 1.4115,-2.67431 1.34884,-2.71255 1.28405,-2.74972 1.2182,-2.78477 1.15236,-2.82087 1.08544,-2.85382 1.01747,-2.88566 0.94737,-2.91858 0.87834,-2.9494 0.80612,-2.97912 0.73496,-3.00887 0.66061,-3.03542 0.58733,-3.06303 0.51192,-3.08959 0.43652,-3.114 0.35791,-3.13738 0.28146,-3.16182 0.20179,-3.18304 0.12214,-3.20323 0.0403,-3.22447 -0.0403,-3.22446 -0.12214,-3.2043 -0.20179,-3.18197 -0.28146,-3.16182 -0.35791,-3.13738 -0.43652,-3.11401 -0.51192,-3.08958 -0.58733,-3.06303 -0.66061,-3.03542 -0.73496,-3.008867 -0.80612,-2.979128 -0.87834,-2.94939 -0.94737,-2.91859 -1.01747,-2.886728 -1.08544,-2.853803 -1.15236,-2.819817 -1.2182,-2.784769 -1.28405,-2.749719 -1.34884,-2.712547 -1.4115,-2.674312 -1.47417,-2.636077 -1.5347,-2.59678 -1.59631,-2.55536 -1.6547,-2.513938 -1.71314,-2.471455 -1.77154,-2.427911 -1.82678,-2.383302 -1.88306,-2.337633 -1.93723,-2.290902 -1.99034,-2.243109 -2.04344,-2.194253 -2.09442,-2.145397 -2.14539,-2.094418 -2.19425,-2.043438 -2.24311,-1.990333 -2.29091,-1.937231 -2.33763,-1.883064 -2.3833,-1.826774 -2.42791,-1.771545 -2.47146,-1.713132 -2.51393,-1.654717 -2.55536,-1.596303 -2.59678,-1.534702 -2.63608,-1.474165 -2.67431,-1.411502 -2.71255,-1.348839 -2.74972,-1.284051 -2.78477,-1.218204 -2.82087,-1.1523544 -2.85382,-1.0854435 -2.88566,-1.0174707 -2.91858,-0.9473734 -2.9494,-0.8783384 -2.97912,-0.8061171 -3.00887,-0.7349579 -3.03542,-0.6606125 -3.06303,-0.587329 -3.08959,-0.5119216 -3.114,-0.436514 -3.13738,-0.3579202 -3.16182,-0.28145063 -3.18304,-0.20179481 -3.20323,-0.12213895 z"
         fill_rule="evenodd"
         id="path6"
         style="fill:#000000;fill-opacity:1;stroke:none"
         inkscape:connector-curvature="0" />
      <path
         d=" M 82.480, 44.352 82.480, 198.529 128.628, 198.529 132.054, 198.447 135.359, 198.201 138.543, 197.791 141.606, 197.217 144.547, 196.479 147.367, 195.577 150.066, 194.510 152.644, 193.280 155.100, 191.886 157.435, 190.327 159.649, 188.605 161.741, 186.718 163.688, 184.685 165.466, 182.523 167.074, 180.233 168.514, 177.813 169.783, 175.265 170.884, 172.587 171.815, 169.781 172.577, 166.846 173.170, 163.782 173.593, 160.589 173.847, 157.267 173.932, 153.816 173.896, 151.379 173.788, 149.024 173.607, 146.750 173.355, 144.559 173.031, 142.450 172.635, 140.423 172.166, 138.478 171.626, 136.615 171.013, 134.834 170.329, 133.135 169.572, 131.518 168.743, 129.983 167.833, 128.528 166.832, 127.153 165.740, 125.857 164.558, 124.640 163.284, 123.502 161.920, 122.443 160.465, 121.463 158.919, 120.562 157.283, 119.740 155.555, 118.998 153.737, 118.334 151.828, 117.750 151.828, 116.695 153.239, 116.347 154.602, 115.901 155.917, 115.357 157.185, 114.715 158.406, 113.975 159.579, 113.136 160.705, 112.200 161.783, 111.165 162.814, 110.032 163.797, 108.801 164.733, 107.472 165.622, 106.044 166.450, 104.533 167.207, 102.954 167.892, 101.305 168.504, 99.588 169.045, 97.802 169.513, 95.947 169.909, 94.023 170.234, 92.030 170.486, 89.969 170.666, 87.838 170.774, 85.639 170.810, 83.371 170.728, 80.055 170.481, 76.893 170.069, 73.883 169.493, 71.027 168.752, 68.323 167.847, 65.773 166.777, 63.376 165.542, 61.132 164.143, 59.040 162.579, 57.102 160.850, 55.317 158.957, 53.685 156.882, 52.195 154.606, 50.833 152.131, 49.602 149.456, 48.500 146.582, 47.528 143.508, 46.686 140.233, 45.973 136.760, 45.389 133.086, 44.936 129.212, 44.612 125.139, 44.417 120.866, 44.352 82.480, 44.352  z M 108.633, 71.138 122.385, 71.138 124.213, 71.165 125.957, 71.245 127.618, 71.379 129.195, 71.566 130.688, 71.806 132.097, 72.100 133.423, 72.448 134.664, 72.849 135.822, 73.303 136.897, 73.811 137.887, 74.373 138.794, 74.987 139.622, 75.664 140.379, 76.410 141.064, 77.225 141.676, 78.110 142.217, 79.065 142.685, 80.089 143.081, 81.183 143.406, 82.346 143.658, 83.579 143.838, 84.881 143.946, 86.253 143.982, 87.695 143.949, 89.239 143.850, 90.709 143.684, 92.104 143.452, 93.425 143.155, 94.670 142.790, 95.841 142.360, 96.938 141.864, 97.959 141.301, 98.906 140.672, 99.778 139.977, 100.576 139.215, 101.299 138.380, 101.956 137.464, 102.555 136.466, 103.098 135.386, 103.584 134.225, 104.012 132.983, 104.383 131.659, 104.697 130.254, 104.955 128.767, 105.154 127.199, 105.297 125.550, 105.383 123.819, 105.411 108.633, 105.411 108.633, 71.138  z  M 108.633, 131.354 124.831, 131.354 128.335, 131.487 131.534, 131.887 134.428, 132.553 137.017, 133.486 139.302, 134.686 141.282, 136.152 142.958, 137.885 144.329, 139.884 145.395, 142.150 146.157, 144.682 146.614, 147.481 146.766, 150.547 146.730, 152.284 146.623, 153.945 146.445, 155.530 146.194, 157.038 145.873, 158.471 145.480, 159.827 145.015, 161.107 144.479, 162.311 143.871, 163.439 143.192, 164.490 142.442, 165.466 141.620, 166.365 140.723, 167.191 139.747, 167.944 138.693, 168.626 137.561, 169.236 136.350, 169.774 135.061, 170.241 133.693, 170.635 132.246, 170.958 130.721, 171.210 129.117, 171.389 127.435, 171.497 125.675, 171.533 108.633, 171.533 108.633, 131.354  z"
         fill="rgb(255, 255, 255)"
         fill-opacity="1.0"
         fill_rule="evenodd"
         stroke="none"
         id="path8" />
    </g>
    <g
       id="strokes"
       inkscape:groupmode="layer"
       inkscape:label="strokes">
      <path
         d=" M 82.480, 44.352 82.480, 54.352 82.480, 64.352 82.480, 74.352 82.480, 84.352 82.480, 94.352 82.480, 104.352 82.480, 114.352 82.480, 124.352 82.480, 134.352 82.480, 144.352 82.480, 154.352 82.480, 164.352 82.480, 174.352 82.480, 184.352 82.480, 194.352 82.480, 198.529 92.480, 198.529 102.480, 198.529 112.480, 198.529 122.480, 198.529 128.628, 198.529 132.054, 198.447 135.359, 198.201 138.543, 197.791 141.606, 197.217 144.547, 196.479 147.367, 195.577 150.066, 194.510 152.644, 193.280 155.100, 191.886 157.435, 190.327 159.649, 188.605 161.741, 186.718 163.688, 184.685 165.466, 182.523 167.074, 180.233 168.514, 177.813 169.783, 175.265 170.884, 172.587 171.815, 169.781 172.577, 166.846 173.170, 163.782 173.593, 160.589 173.847, 157.267 173.932, 153.816 173.896, 151.379 173.788, 149.024 173.607, 146.750 173.355, 144.559 173.031, 142.450 172.635, 140.423 172.166, 138.478 171.626, 136.615 171.013, 134.834 170.329, 133.135 169.572, 131.518 168.743, 129.983 167.833, 128.528 166.832, 127.153 165.740, 125.857 164.558, 124.640 163.284, 123.502 161.920, 122.443 160.465, 121.463 158.919, 120.562 157.283, 119.740 155.555, 118.998 153.737, 118.334 151.828, 117.750 151.828, 116.695 153.239, 116.347 154.602, 115.901 155.917, 115.357 157.185, 114.715 158.406, 113.975 159.579, 113.136 160.705, 112.200 161.783, 111.165 162.814, 110.032 163.797, 108.801 164.733, 107.472 165.622, 106.044 166.450, 104.533 167.207, 102.954 167.892, 101.305 168.504, 99.588 169.045, 97.802 169.513, 95.947 169.909, 94.023 170.234, 92.030 170.486, 89.969 170.666, 87.838 170.774, 85.639 170.810, 83.371 170.728, 80.055 170.481, 76.893 170.069, 73.883 169.493, 71.027 168.752, 68.323 167.847, 65.773 166.777, 63.376 165.542, 61.132 164.143, 59.040 162.579, 57.102 160.850, 55.317 158.957, 53.685 156.882, 52.195 154.606, 50.833 152.131, 49.602 149.456, 48.500 146.582, 47.528 143.508, 46.686 140.233, 45.973 136.760, 45.389 133.086, 44.936 129.212, 44.612 125.139, 44.417 120.866, 44.352 110.866, 44.352 100.866, 44.352 90.866, 44.352 82.480, 44.352 "
         fill="none"
         stroke="rgb(12, 12, 12)"
         stroke-linecap="butt"
         stroke-linejoin="round"
         stroke-opacity="1.0"
         stroke-width="0.0"
         id="path11" />
      <path
         d=" M 108.633, 71.138 118.633, 71.138 122.385, 71.138 124.213, 71.165 125.957, 71.245 127.618, 71.379 129.195, 71.566 130.688, 71.806 132.097, 72.100 133.423, 72.448 134.664, 72.849 135.822, 73.303 136.897, 73.811 137.887, 74.373 138.794, 74.987 139.622, 75.664 140.379, 76.410 141.064, 77.225 141.676, 78.110 142.217, 79.065 142.685, 80.089 143.081, 81.183 143.406, 82.346 143.658, 83.579 143.838, 84.881 143.946, 86.253 143.982, 87.695 143.949, 89.239 143.850, 90.709 143.684, 92.104 143.452, 93.425 143.155, 94.670 142.790, 95.841 142.360, 96.938 141.864, 97.959 141.301, 98.906 140.672, 99.778 139.977, 100.576 139.215, 101.299 138.380, 101.956 137.464, 102.555 136.466, 103.098 135.386, 103.584 134.225, 104.012 132.983, 104.383 131.659, 104.697 130.254, 104.955 128.767, 105.154 127.199, 105.297 125.550, 105.383 123.819, 105.411 113.819, 105.411 108.633, 105.411 108.633, 95.411 108.633, 85.411 108.633, 75.411 108.633, 71.138 "
         fill="none"
         stroke="rgb(12, 12, 12)"
         stroke-linecap="butt"
         stroke-linejoin="round"
         stroke-opacity="1.0"
         stroke-width="0.0"
         id="path13" />
      <path
         d=" M 108.633, 131.354 118.633, 131.354 124.831, 131.354 128.335, 131.487 131.534, 131.887 134.428, 132.553 137.017, 133.486 139.302, 134.686 141.282, 136.152 142.958, 137.885 144.329, 139.884 145.395, 142.150 146.157, 144.682 146.614, 147.481 146.766, 150.547 146.730, 152.284 146.623, 153.945 146.445, 155.530 146.194, 157.038 145.873, 158.471 145.480, 159.827 145.015, 161.107 144.479, 162.311 143.871, 163.439 143.192, 164.490 142.442, 165.466 141.620, 166.365 140.723, 167.191 139.747, 167.944 138.693, 168.626 137.561, 169.236 136.350, 169.774 135.061, 170.241 133.693, 170.635 132.246, 170.958 130.721, 171.210 129.117, 171.389 127.435, 171.497 125.675, 171.533 115.675, 171.533 108.633, 171.533 108.633, 161.533 108.633, 151.533 108.633, 141.533 108.633, 131.354 "
         fill="none"
         stroke="rgb(12, 12, 12)"
         stroke-linecap="butt"
         stroke-linejoin="round"
         stroke-opacity="1.0"
         stroke-width="0.0"
         id="path15" />
      <path
         d=" M 128.036, 7.391 125.000, 7.353 121.964, 7.391 118.947, 7.506 115.951, 7.696 112.974, 7.961 110.020, 8.298 107.088, 8.709 104.179, 9.191 101.295, 9.744 98.437, 10.366 95.604, 11.058 92.799, 11.817 90.022, 12.644 87.274, 13.536 84.556, 14.494 81.869, 15.516 79.214, 16.601 76.592, 17.748 74.003, 18.957 71.449, 20.227 68.931, 21.556 66.449, 22.944 64.004, 24.389 61.598, 25.892 59.231, 27.450 56.904, 29.063 54.618, 30.731 52.374, 32.451 50.173, 34.224 48.016, 36.048 45.904, 37.922 43.838, 39.846 41.818, 41.818 39.846, 43.838 37.922, 45.904 36.048, 48.016 34.224, 50.173 32.451, 52.374 30.731, 54.618 29.063, 56.904 27.450, 59.231 25.892, 61.598 24.389, 64.004 22.944, 66.449 21.556, 68.931 20.227, 71.449 18.957, 74.003 17.748, 76.592 16.601, 79.214 15.516, 81.870 14.494, 84.557 13.536, 87.274 12.644, 90.022 11.817, 92.799 11.058, 95.604 10.366, 98.437 9.744, 101.295 9.191, 104.179 8.709, 107.088 8.298, 110.020 7.961, 112.974 7.696, 115.951 7.506, 118.948 7.391, 121.964 7.353, 125.000 7.391, 128.036 7.506, 131.053 7.696, 134.049 7.961, 137.026 8.298, 139.980 8.709, 142.912 9.191, 145.821 9.744, 148.705 10.366, 151.563 11.058, 154.396 11.817, 157.201 12.644, 159.978 13.536, 162.726 14.494, 165.444 15.516, 168.131 16.601, 170.786 17.748, 173.408 18.957, 175.997 20.227, 178.551 21.556, 181.069 22.944, 183.551 24.389, 185.996 25.892, 188.402 27.450, 190.769 29.063, 193.096 30.731, 195.382 32.451, 197.626 34.224, 199.827 36.048, 201.984 37.922, 204.096 39.846, 206.162 41.818, 208.182 43.838, 210.154 45.904, 212.078 48.016, 213.952 50.173, 215.776 52.374, 217.549 54.618, 219.269 56.904, 220.937 59.231, 222.550 61.598, 224.108 64.004, 225.611 66.449, 227.056 68.931, 228.444 71.449, 229.773 74.003, 231.043 76.592, 232.252 79.214, 233.399 81.870, 234.484 84.557, 235.506 87.274, 236.464 90.022, 237.356 92.799, 238.183 95.604, 238.942 98.437, 239.634 101.295, 240.256 104.179, 240.809 107.088, 241.291 110.020, 241.702 112.974, 242.039 115.951, 242.304 118.948, 242.494 121.964, 242.609 125.000, 242.647 128.036, 242.609 131.053, 242.494 134.049, 242.304 137.026, 242.039 139.980, 241.702 142.912, 241.291 145.821, 240.809 148.705, 240.256 151.563, 239.634 154.396, 238.942 157.201, 238.183 159.978, 237.356 162.726, 236.464 165.444, 235.506 168.131, 234.484 170.786, 233.399 173.408, 232.252 175.997, 231.043 178.551, 229.773 181.069, 228.444 183.551, 227.056 185.996, 225.611 188.402, 224.108 190.769, 222.550 193.096, 220.937 195.382, 219.269 197.626, 217.549 199.827, 215.776 201.984, 213.952 204.096, 212.078 206.162, 210.154 208.182, 208.182 210.154, 206.162 212.078, 204.096 213.952, 201.984 215.776, 199.827 217.549, 197.626 219.269, 195.382 220.937, 193.096 222.550, 190.769 224.108, 188.402 225.611, 185.996 227.056, 183.551 228.444, 181.069 229.773, 178.551 231.043, 175.997 232.252, 173.408 233.399, 170.786 234.484, 168.130 235.506, 165.443 236.464, 162.726 237.356, 159.978 238.183, 157.201 238.942, 154.396 239.634, 151.563 240.256, 148.705 240.809, 145.821 241.291, 142.912 241.702, 139.980 242.039, 137.026 242.304, 134.049 242.494, 131.052 242.609, 128.036 242.647, 125.000 242.609, 121.964 242.494, 118.947 242.304, 115.951 242.039, 112.974 241.702, 110.020 241.291, 107.088 240.809, 104.179 240.256, 101.295 239.634, 98.437 238.942, 95.604 238.183, 92.799 237.356, 90.022 236.464, 87.274 235.506, 84.556 234.484, 81.869 233.399, 79.214 232.252, 76.592 231.043, 74.003 229.773, 71.449 228.444, 68.931 227.056, 66.449 225.611, 64.004 224.108, 61.598 222.550, 59.231 220.937, 56.904 219.269, 54.618 217.549, 52.374 215.776, 50.173 213.952, 48.016 212.078, 45.904 210.154, 43.838 208.182, 41.818 206.162, 39.846 204.096, 37.922 201.984, 36.048 199.827, 34.224 197.626, 32.451 195.382, 30.731 193.096, 29.063 190.769, 27.450 188.402, 25.892 185.996, 24.389 183.551, 22.944 181.069, 21.556 178.551, 20.227 175.997, 18.957 173.408, 17.748 170.786, 16.601 168.130, 15.516 165.443, 14.494 162.726, 13.536 159.978, 12.644 157.201, 11.817 154.396, 11.058 151.563, 10.366 148.705, 9.744 145.821, 9.191 142.912, 8.709 139.980, 8.298 137.026, 7.961 134.049, 7.696 131.052, 7.506 128.036, 7.391 "
         fill="none"
         stroke="rgb(12, 12, 12)"
         stroke-linecap="butt"
         stroke-linejoin="round"
         stroke-opacity="1.0"
         stroke-width="0.0"
         id="path17" />
    </g>
  </g>
</svg>
