<?xml version="1.0" encoding="UTF-8" standalone="no"?>
<svg
   xmlns:dc="http://purl.org/dc/elements/1.1/"
   xmlns:cc="http://creativecommons.org/ns#"
   xmlns:rdf="http://www.w3.org/1999/02/22-rdf-syntax-ns#"
   xmlns:svg="http://www.w3.org/2000/svg"
   xmlns="http://www.w3.org/2000/svg"
   xmlns:sodipodi="http://sodipodi.sourceforge.net/DTD/sodipodi-0.dtd"
   xmlns:inkscape="http://www.inkscape.org/namespaces/inkscape"
   height="250"
   version="1.1"
   width="250"
   viewBox="0 0 250 250"
   id="svg2"
   inkscape:version="0.91 r13725"
   sodipodi:docname="x_thumb_right_y.svg">
  <metadata
     id="metadata21">
    <rdf:RDF>
      <cc:Work
         rdf:about="">
        <dc:format>image/svg+xml</dc:format>
        <dc:type
           rdf:resource="http://purl.org/dc/dcmitype/StillImage" />
        <dc:title />
      </cc:Work>
    </rdf:RDF>
  </metadata>
  <defs
     id="defs19">
    <pattern
       y="0"
       x="0"
       height="6"
       width="6"
       patternUnits="userSpaceOnUse"
       id="EMFhbasepattern" />
  </defs>
  <sodipodi:namedview
     pagecolor="#ffffff"
     bordercolor="#666666"
     borderopacity="1"
     objecttolerance="10"
     gridtolerance="10"
     guidetolerance="10"
     inkscape:pageopacity="0"
     inkscape:pageshadow="2"
     inkscape:window-width="1920"
     inkscape:window-height="1018"
     id="namedview17"
     showgrid="false"
     inkscape:zoom="2.6700352"
     inkscape:cx="130.03123"
     inkscape:cy="104.2339"
     inkscape:window-x="-8"
     inkscape:window-y="-8"
     inkscape:window-maximized="1"
     inkscape:current-layer="strokes" />
  <g
     id="RenderLayer_LineSet"
     inkscape:groupmode="lineset"
     inkscape:label="RenderLayer_LineSet">
    <g
       id="fills"
       inkscape:groupmode="layer"
       inkscape:label="fills">
      <path
         style="fill:#000000;fill-opacity:1;stroke:none;stroke-width:0.1;stroke-miterlimit:4;stroke-dasharray:none;stroke-opacity:1"
         d="M 117.70677,249.22269 C 73.354786,246.58452 33.597045,220.46034 13.658341,180.85414 6.9445257,167.51783 2.8015732,153.38926 0.97881257,137.61358 0.36747973,132.32262 0.46428019,117.26037 1.1449777,111.7583 1.8664506,105.92664 2.7236033,101.03691 3.8326844,96.425963 12.712713,59.507796 38.078089,28.636844 72.684958,12.629244 84.349935,7.233545 96.054492,3.8794275 109.92886,1.9564478 114.85568,1.2735916 129.7555,1.0045858 135.52669,1.4942983 178.97476,5.1810673 217.2221,30.92989 236.6888,69.598524 c 6.57823,13.066967 10.61505,26.560884 12.51888,41.846996 0.78965,6.34028 0.78554,21.56475 -0.008,27.71647 -3.15796,24.49681 -11.86845,45.25489 -26.83431,63.94918 -4.16458,5.20212 -13.63455,14.65496 -18.79085,18.75693 -16.73934,13.31648 -36.17861,22.11907 -56.62327,25.64039 -6.22544,1.07225 -8.96263,1.38811 -15.08916,1.74126 -5.89951,0.34006 -8.05327,0.33594 -14.15582,-0.027 l 0,1e-5 z m -0.62224,-91.94434 0,-19.8196 4.53681,0 4.53679,0 9.84585,19.8196 9.84584,19.81959 9.88447,0 c 5.43645,0 9.88447,-0.0751 9.88447,-0.16672 0,-0.0917 -1.31922,-2.56528 -2.93158,-5.49684 -1.61238,-2.93156 -7.06894,-12.98731 -12.12572,-22.34612 l -9.19411,-17.01601 1.93071,-1.21513 c 4.52992,-2.85098 9.1479,-8.49312 11.13471,-13.60413 1.58876,-4.08702 2.15573,-7.45075 2.15336,-12.77529 -0.003,-8.528877 -1.37696,-14.189923 -4.6394,-19.127032 -3.02846,-4.583019 -7.29419,-7.726315 -13.08402,-9.641241 -5.79881,-1.917905 -8.513,-2.153974 -25.04489,-2.178332 l -14.622503,-0.02155 -0.07872,51.794215 -0.07871,51.79419 9.023293,0 9.0233,0 0,-19.8196 0,1e-5 z"
         id="path4201"
         inkscape:connector-curvature="0" />
      <rect
         style="fill:#000000;fill-opacity:1;stroke:none"
         id="rect4163"
         width="99.998764"
         height="110.85996"
         x="80.523354"
         y="70.12294" />
    </g>
    <g
       inkscape:groupmode="layer"
       id="layer1"
       inkscape:label="fills 1">
      <g
         id="g4147"
         transform="matrix(0.86454102,0,0,0.86454445,13.952275,16.22775)">
        <path
           style="fill:#ffffff;fill-opacity:1;stroke:none;stroke-width:0;stroke-linecap:butt;stroke-linejoin:round;stroke-opacity:1"
           id="path11-88"
           d="m 103,72.606415 0,8.031881 0,8.031875 0,8.031929 0,8.03186 0,8.03189 0,8.03187 0,8.03188 0,8.03188 0,8.03189 0,8.03188 0,8.03188 0,8.03188 0,8.87605 8.0319,0 8.03187,0 1.79112,0 0,-8.03189 0,-8.03188 0,-8.03188 0,-8.03189 0,-8.2624 8.0319,0 1.47143,0 3.5782,7.19093 3.579,7.19016 3.57903,7.19095 3.57821,7.19014 3.579,7.19095 2.20796,4.43681 8.03191,0 8.03189,0 3.74927,0 -1.05217,-1.90275 -1.2353,-2.25134 -1.42003,-2.59992 -1.604,-2.94932 -1.78788,-3.2987 -1.97183,-3.64728 -2.15577,-3.99584 -2.34048,-4.34525 -2.52361,-4.69465 -2.70757,-5.04322 -2.89227,-5.3918 -3.07541,-5.74119 1.22406,-0.706 1.17748,-0.74938 1.12928,-0.79274 1.0835,-0.83612 1.0353,-0.87949 0.98794,-0.92287 0.94133,-0.96704 0.89394,-1.0104 0.84658,-1.05379 0.79998,-1.09715 0.75258,-1.14053 0.70518,-1.1839 0.653,-1.22004 0.59598,-1.24896 0.53973,-1.27706 0.48271,-1.30598 0.42569,-1.3341 0.36946,-1.36301 0.31244,-1.39111 0.25542,-1.41924 0.19919,-1.44815 0.14219,-1.47707 0.0851,-1.50517 0.0281,-1.53328 -0.0569,-2.59591 -0.17188,-2.482648 -0.28595,-2.371016 -0.39998,-2.257779 -0.51485,-2.146132 -0.62971,-2.032867 -0.74292,-1.920428 -0.85862,-1.808776 -0.97185,-1.695522 -1.08672,-1.58309 -1.20156,-1.470633 -1.31563,-1.358201 -1.43451,-1.247353 -1.55898,-1.139718 -1.68269,-1.030489 -1.80636,-0.922069 -1.93087,-0.813625 -2.05455,-0.705194 -2.17906,-0.596773 -2.30193,-0.488342 -2.42725,-0.37991 -2.55012,-0.270669 -2.67462,-0.163047 -2.79912,-0.05465 -8.03189,0 -8.03189,0 -8.03188,0 -0.44014,0"
           inkscape:connector-curvature="0" />
        <path
           style="fill:#000000;fill-opacity:1;stroke:none;stroke-width:0;stroke-linecap:butt;stroke-linejoin:round;stroke-opacity:1"
           id="path13-9-8"
           d="m 120.71868,90.548099 5.41351,0 1.40879,0.02238 1.34613,0.06584 1.28269,0.110015 1.22004,0.154212 1.1574,0.197587 1.09474,0.24176 1.03131,0.286731 0.96945,0.329307 0.906,0.374291 0.84334,0.417665 0.7807,0.462624 0.71726,0.506016 0.6578,0.557413 0.6008,0.618472 0.54376,0.677892 0.48591,0.737353 0.4289,0.798361 0.37188,0.857798 0.31404,0.918049 0.25784,0.97828 0.19998,1.037715 0.14293,1.09798 0.086,1.15818 0.0289,1.21762 -0.0281,1.2321 -0.0844,1.17587 -0.13971,1.11965 -0.19598,1.06422 -0.2522,1.008 -0.30762,0.95178 -0.36384,0.89555 -0.42007,0.84013 -0.4763,0.78393 -0.53171,0.72848 -0.58793,0.67148 -0.64415,0.61605 -0.70279,0.56382 -0.76465,0.51404 -0.82568,0.46585 -0.88753,0.41605 -0.94937,0.36786 -1.0104,0.31807 -1.07227,0.26987 -1.13408,0.22006 -1.19596,0.17188 -1.25699,0.12209 -1.31883,0.0738 -1.37988,0.024 -5.75969,0 0,-8.03187 0,-8.03189 0,-8.031882 0,-4.342856"
           inkscape:connector-curvature="0" />
      </g>
    </g>
    <g
       id="strokes"
       inkscape:groupmode="layer"
       inkscape:label="strokes">
      <path
         d="m 23.030601,71.664498 -0.669001,1.269 -0.652001,1.277 -0.638,1.286 -0.621001,1.292 -0.605,1.301 -0.590001,1.308 -0.573,1.315 -0.557001,1.322 -0.541,1.328 -0.524001,1.336 -0.508,1.341 -0.492,1.348 -0.475001,1.353 -0.458,1.36 -0.442001,1.365 -0.424,1.37 -0.408,1.375 -0.392001,1.38 -0.374,1.385 -0.357,1.39 -0.340001,1.392998 -0.323,1.398014 -0.306,1.401 -0.288,1.406 -0.272001,1.408 -0.253,1.412 -0.237,1.415 -0.219,1.418 -0.202001,1.42 -0.184,1.423 -0.1670001,1.424 -0.1490002,1.427 -0.1320001,1.429 -0.1140001,1.43 -0.097,1.431 -0.079,1.432 -0.062,1.433 -0.044,1.434 -0.027,1.435 -0.008,1.434 0.008,1.435 0.027,1.434 0.044,1.434 0.062,1.433 0.079,1.432 0.097,1.431 0.1140001,1.43 0.1320001,1.429 0.1490002,1.427 0.1670001,1.424 0.184,1.423 0.202001,1.42 0.219,1.418 0.237,1.415 0.253,1.412 0.272001,1.408 0.288,1.406 0.306,1.401 0.323,1.398 0.340001,1.393 0.357,1.39 0.374,1.385 0.391001,1.38 0.408,1.375 0.425,1.37 0.442001,1.365 0.458,1.36 0.475001,1.353 0.492,1.348 0.508,1.341 0.524001,1.336 0.541,1.328 0.557001,1.322 0.573,1.315 0.590001,1.308 0.605,1.301 0.621001,1.293 0.638,1.285 0.652001,1.277 0.669001,1.269 0.684,1.261 0.699001,1.253 0.715,1.244 0.730001,1.235 0.745001,1.226 0.76,1.216 0.775001,1.208 0.789001,1.197 0.804,1.188 0.819001,1.178 0.834001,1.168 0.847001,1.157 0.862,1.147 0.875001,1.136 0.890001,1.126 0.903001,1.114 0.917001,1.103 0.93,1.092 0.944001,1.081 0.957001,1.069 0.969001,1.057 0.983001,1.045 0.996001,1.033 1.008,1.02 1.020001,1.008 1.033001,0.996 1.045001,0.983 1.057001,0.969 1.069001,0.957 1.081001,0.944 1.092001,0.93 1.103001,0.917 1.114001,0.903 1.126001,0.89 1.136001,0.875 1.147001,0.862 1.157001,0.848 1.168001,0.833 1.178001,0.819 1.188001,0.804 1.197001,0.79 1.208001,0.774 1.216001,0.76 1.226001,0.745 1.235001,0.73 1.244001,0.715 1.253001,0.699 1.261001,0.684 1.269002,0.669 1.277001,0.652 1.286001,0.638 1.292001,0.621 1.301001,0.605 1.308001,0.59 1.315001,0.573 1.322002,0.557 1.328001,0.541 1.336001,0.525 1.341001,0.507 1.348001,0.492 1.353001,0.475 1.360002,0.458 1.365001,0.442 1.370001,0.425 1.375001,0.408 1.380001,0.391 1.385002,0.374 1.390001,0.357 1.393001,0.34 1.398003,0.323 1.401,0.306 1.406,0.288 1.408,0.272 1.412,0.253 1.415,0.237 1.418,0.219 1.42001,0.202 1.423,0.184 1.424,0.167 1.427,0.149 1.429,0.132 1.43,0.114 1.431,0.097 1.432,0.079 1.43301,0.062 1.434,0.044 1.435,0.027 1.434,0.008 1.435,-0.008 1.434,-0.027 1.434,-0.044 1.433,-0.062 1.43201,-0.079 1.431,-0.097 1.43,-0.114 1.429,-0.132 1.427,-0.149 1.424,-0.167 1.423,-0.184 1.42,-0.202 1.41801,-0.219 1.415,-0.237 1.412,-0.253 1.408,-0.272 1.406,-0.288 1.401,-0.306 1.398,-0.323 1.393,-0.34 1.39001,-0.357 1.385,-0.374 1.38,-0.391 1.375,-0.408 1.37,-0.425 1.365,-0.442 1.36,-0.458 1.353,-0.475 1.34801,-0.492 1.342,-0.508 1.335,-0.524 1.328,-0.541 1.322,-0.557 1.315,-0.573 1.308,-0.59 1.301,-0.605 1.293,-0.621 1.28501,-0.638 1.277,-0.652 1.269,-0.669 1.261,-0.684 1.253,-0.699 1.244,-0.715 1.235,-0.73 1.226,-0.745 1.216,-0.76 1.20801,-0.775 1.197,-0.789 1.188,-0.804 1.178,-0.819 1.168,-0.834 1.157,-0.847 1.147,-0.862 1.136,-0.875 1.126,-0.89 1.114,-0.903 1.10301,-0.917 1.092,-0.93 1.081,-0.944 1.069,-0.957 1.057,-0.969 1.045,-0.983 1.033,-0.996 1.02,-1.008 1.008,-1.02 0.996,-1.033 0.983,-1.045 0.96901,-1.057 0.957,-1.069 0.944,-1.081 0.93,-1.092 0.917,-1.103 0.903,-1.114 0.89,-1.126 0.875,-1.136 0.862,-1.147 0.848,-1.157 0.833,-1.168 0.819,-1.178 0.804,-1.188 0.79001,-1.197 0.774,-1.208 0.76,-1.216 0.745,-1.226 0.73,-1.235 0.715,-1.244 0.699,-1.253 0.684,-1.261 0.669,-1.269 0.652,-1.277 0.638,-1.286 0.621,-1.293 0.605,-1.3 0.59,-1.308 0.573,-1.315 0.557,-1.322 0.541,-1.328 0.525,-1.336 0.50801,-1.341 0.491,-1.348 0.475,-1.354 0.458,-1.359 0.442,-1.365 0.425,-1.37 0.408,-1.375 0.391,-1.38 0.374,-1.385 0.357,-1.39 0.34,-1.393 0.323,-1.398 0.306,-1.402 0.288,-1.405 0.272,-1.408 0.253,-1.412 0.237,-1.415 0.219,-1.418 0.202,-1.42 0.184,-1.423 0.167,-1.425 0.149,-1.426 0.132,-1.429 0.114,-1.43 0.097,-1.431 0.079,-1.432 0.062,-1.433 0.044,-1.434 0.027,-1.435 0.008,-1.434 -0.008,-1.435 -0.027,-1.434 -0.044,-1.434 -0.062,-1.433 -0.079,-1.432 -0.097,-1.431 -0.114,-1.43 -0.132,-1.429 -0.149,-1.427 -0.167,-1.424 -0.184,-1.423 -0.202,-1.42 -0.219,-1.418 -0.237,-1.415 -0.253,-1.412 -0.272,-1.408 -0.288,-1.406 -0.306,-1.401 -0.323,-1.398014 -0.34,-1.393998 -0.357,-1.389 -0.374,-1.385 -0.392,-1.38 -0.408,-1.375 -0.424,-1.37 -0.442,-1.365 -0.458,-1.36 -0.475,-1.353 -0.492,-1.348 -0.50801,-1.342 -0.524,-1.335 -0.541,-1.328 -0.557,-1.322 -0.573,-1.315 -0.59,-1.308 -0.605,-1.301 -0.621,-1.293 -0.638,-1.285 -0.652,-1.277 -0.669,-1.269 -0.684,-1.261 -0.699,-1.253 -0.715,-1.244 -0.73,-1.235 -0.745,-1.226 -0.76,-1.216 -0.775,-1.208 -0.78901,-1.197 -0.804,-1.188 -0.819,-1.178 -0.834,-1.168 -0.847,-1.157 -0.862,-1.147 -0.875,-1.136 -0.89,-1.126 -0.903,-1.114 -0.917,-1.103 -0.93,-1.092 -0.944,-1.081 -0.957,-1.069 -0.97001,-1.057 -0.982,-1.045 -0.996,-1.033 -1.008,-1.02 -1.02,-1.008 -1.033,-0.996 -1.045,-0.983 -1.057,-0.969 -1.069,-0.957 -1.081,-0.944 -1.092,-0.93 -1.10301,-0.917 -1.115,-0.903 -1.125,-0.89 -1.136,-0.875 -1.147,-0.862 -1.158,-0.848 -1.167,-0.833 -1.178,-0.819 -1.188,-0.804 -1.198,-0.79 -1.20701,-0.774 -1.217,-0.76 -1.225,-0.745 -1.235,-0.73 -1.244,-0.715 -1.253,-0.699 -1.261,-0.684 -1.269,-0.669 -1.277,-0.652 -1.28601,-0.638 -1.293,-0.621 -1.3,-0.605 -1.308,-0.59 -1.315,-0.573 -1.322,-0.557 -1.328,-0.541 -1.336,-0.525 -1.341,-0.507 -1.34801,-0.492 -1.354,-0.475 -1.359,-0.458 -1.365,-0.442 -1.37,-0.425 -1.375,-0.408 -1.38,-0.391 -1.385,-0.374 -1.39001,-0.357 -1.393,-0.34 -1.398,-0.323 -1.402,-0.306 -1.405,-0.288 -1.408,-0.272 -1.412,-0.253 -1.415,-0.237 -1.41801,-0.219 -1.42,-0.202 -1.423,-0.184 -1.425,-0.167 -1.426,-0.149001 -1.429,-0.132 -1.43,-0.114 -1.431,-0.097 -1.43201,-0.079 -1.433,-0.062 -1.434,-0.044 -1.435,-0.027 -1.434,-0.008 -1.435,0.008 -1.434,0.027 -1.434,0.044 -1.43301,0.062 -1.432,0.079 -1.431,0.097 -1.43,0.114 -1.429,0.132 -1.427,0.149001 -1.424,0.167 -1.423,0.184 -1.42001,0.202 -1.418,0.219 -1.415,0.237 -1.412,0.253 -1.408,0.272 -1.406,0.288 -1.401,0.306 -1.398003,0.323 -1.393001,0.34 -1.390001,0.357 -1.385002,0.374 -1.380001,0.392 -1.375001,0.408 -1.370001,0.424 -1.365001,0.442 -1.360002,0.458 -1.353001,0.475 -1.348001,0.492 -1.341001,0.508 -1.336001,0.524 -1.328001,0.541 -1.322002,0.557 -1.315001,0.573 -1.308001,0.59 -1.301001,0.605 -1.293001,0.621 -1.285001,0.638 -1.277001,0.652 -1.269002,0.669 -1.261001,0.684 -1.253001,0.699 -1.244001,0.715 -1.235001,0.73 -1.226001,0.745 -1.216001,0.76 -1.208001,0.775 -1.197001,0.789 -1.188001,0.804 -1.178001,0.819 -1.168001,0.834 -1.157001,0.847 -1.147001,0.862 -1.136001,0.875 -1.126001,0.89 -1.114001,0.903 -1.103001,0.917 -1.092001,0.93 -1.081001,0.944 -1.069001,0.957 -1.057001,0.969 -1.045001,0.983 -1.033001,0.996 -1.020001,1.008 -1.008,1.02 -0.996001,1.033 -0.983001,1.045 -0.969001,1.057 -0.957001,1.069 -0.944001,1.081 -0.93,1.092 -0.917001,1.103 -0.903001,1.114 -0.890001,1.126 -0.875001,1.136 -0.862,1.147 -0.847001,1.157 -0.834001,1.168 -0.819001,1.178 -0.804,1.188 -0.789001,1.197 -0.775001,1.208 -0.76,1.216 -0.745001,1.226 -0.730001,1.235 -0.715,1.244 -0.699001,1.253 -0.684,1.261"
         id="path13"
         inkscape:connector-curvature="0"
         style="fill:none;stroke:#0c0c0c;stroke-width:0;stroke-linecap:butt;stroke-linejoin:round;stroke-opacity:1" />
      <path
         d="m 37.926614,81.008498 0.568,-1.079 0.581001,-1.072 0.595,-1.064 0.607001,-1.057 0.621,-1.05 0.633001,-1.042 0.646,-1.034 0.658001,-1.027 0.672,-1.018 0.683001,-1.009 0.696001,-1.001 0.708,-0.993 0.721001,-0.984 0.732001,-0.975 0.745,-0.965 0.756001,-0.957 0.767001,-0.947 0.78,-0.938 0.790001,-0.928 0.803001,-0.919 0.813,-0.908 0.824001,-0.899 0.835001,-0.888 0.847,-0.878 0.856001,-0.868 0.868001,-0.856 0.878001,-0.847 0.888001,-0.835 0.899,-0.824 0.908001,-0.813 0.919001,-0.802 0.928001,-0.791 0.938001,-0.78 0.947,-0.767 0.957001,-0.756 0.965001,-0.745 0.975001,-0.732 0.984001,-0.721 0.993001,-0.708 1.001001,-0.696 1.009,-0.683 1.018001,-0.672 1.027001,-0.658 1.034001,-0.646 1.042001,-0.633 1.050001,-0.621 1.057001,-0.607 1.064001,-0.595 1.072001,-0.581 1.079001,-0.568 1.086001,-0.555 1.092001,-0.542 1.099,-0.528 1.106001,-0.515 1.111001,-0.501 1.118001,-0.487 1.124001,-0.474 1.129001,-0.459 1.135001,-0.446 1.140001,-0.432 1.146001,-0.417 1.151001,-0.404 1.155001,-0.39 1.160001,-0.375 1.165001,-0.361 1.169001,-0.347 1.173001,-0.332 1.177003,-0.318 1.181,-0.304 1.185,-0.289 1.188,-0.275 1.191,-0.26 1.194,-0.245 1.198,-0.23 1.2,-0.216 1.20301,-0.201 1.205,-0.186 1.207,-0.172 1.209,-0.156 1.211,-0.142 1.213,-0.127 1.214,-0.112 1.216,-0.097 1.216,-0.083 1.21801,-0.067 1.218,-0.053 1.219,-0.037 1.219,-0.022 1.219,-0.008 1.219,0.008 1.219,0.022 1.219,0.037 1.218,0.053 1.218,0.067 1.21601,0.083 1.216,0.097 1.214,0.112 1.213,0.127 1.211,0.142 1.209,0.156 1.207,0.172 1.205,0.186 1.203,0.201 1.20001,0.216 1.197,0.23 1.195,0.245 1.191,0.26 1.188,0.275 1.185,0.289 1.181,0.304 1.177,0.318 1.173,0.332 1.169,0.347 1.16501,0.361 1.16,0.375 1.155,0.39 1.151,0.403 1.145,0.418 1.141,0.432 1.135,0.446 1.129,0.459 1.124,0.474 1.117,0.487 1.11201,0.501 1.105,0.515 1.1,0.528 1.092,0.542 1.086,0.555 1.079,0.568 1.071,0.581 1.065,0.595 1.057,0.607 1.05,0.621 1.04201,0.633 1.034,0.646 1.026,0.658 1.018,0.671 1.01,0.684 1.001,0.696 0.993,0.708 0.984,0.721 0.975,0.732 0.965,0.745 0.957,0.756 0.947,0.767 0.93801,0.78 0.928,0.79 0.919,0.802 0.908,0.814 0.899,0.824 0.888,0.835 0.878,0.846 0.867,0.857 0.857,0.868 0.847,0.878 0.835,0.888 0.824,0.899 0.813,0.908 0.80201,0.919 0.791,0.928 0.779,0.938 0.768,0.947 0.756,0.957 0.745,0.965 0.732,0.975 0.72,0.984 0.709,0.993 0.696,1.001 0.683,1.009 0.672,1.018 0.658,1.027 0.646,1.034 0.633,1.042 0.621,1.049 0.607,1.058 0.59501,1.064 0.581,1.072 0.568,1.079 0.555,1.086 0.542,1.092 0.528,1.099 0.515,1.106 0.501,1.111 0.487,1.118 0.473,1.124 0.46,1.129 0.446,1.135 0.432,1.14 0.417,1.146 0.404,1.151 0.39,1.155 0.375,1.16 0.361,1.165 0.347,1.168996 0.332,1.173006 0.318,1.17701 0.304,1.181 0.289,1.185 0.275,1.188 0.26,1.191 0.245,1.194 0.23,1.198 0.216,1.2 0.20101,1.202 0.186,1.205 0.172,1.208 0.156,1.209 0.142,1.211 0.127,1.213 0.112,1.214 0.097,1.215 0.083,1.217 0.067,1.217 0.053,1.219 0.037,1.218 0.023,1.22 0.007,1.219 -0.007,1.219 -0.023,1.219 -0.037,1.219 -0.053,1.218 -0.067,1.218 -0.083,1.216 -0.097,1.216 -0.112,1.214 -0.127,1.213 -0.142,1.211 -0.156,1.209 -0.172,1.207 -0.186,1.205 -0.20101,1.203 -0.216,1.2 -0.23,1.197 -0.245,1.195 -0.26,1.191 -0.275,1.188 -0.289,1.185 -0.304,1.181 -0.318,1.177 -0.332,1.173 -0.347,1.169 -0.361,1.165 -0.375,1.16 -0.39,1.155 -0.403,1.151 -0.418,1.145 -0.432,1.141 -0.446,1.135 -0.459,1.129 -0.474,1.124 -0.487,1.117 -0.501,1.112 -0.515,1.106 -0.528,1.099 -0.542,1.092 -0.555,1.086 -0.568,1.079 -0.581,1.072 -0.59501,1.064 -0.607,1.057 -0.621,1.05 -0.633,1.042 -0.646,1.034 -0.658,1.027 -0.671,1.018 -0.684,1.009 -0.696,1.001 -0.708,0.993 -0.721,0.984 -0.732,0.975 -0.745,0.965 -0.756,0.957 -0.767,0.947 -0.78,0.938 -0.79,0.928 -0.80201,0.919 -0.814,0.908 -0.824,0.899 -0.835,0.888 -0.847,0.878 -0.856,0.868 -0.868,0.856 -0.878,0.847 -0.888,0.835 -0.899,0.824 -0.908,0.813 -0.919,0.802 -0.928,0.791 -0.93801,0.78 -0.947,0.767 -0.957,0.756 -0.965,0.745 -0.975,0.732 -0.984,0.721 -0.993,0.708 -1.001,0.696 -1.009,0.683 -1.018,0.672 -1.027,0.658 -1.034,0.646 -1.04201,0.633 -1.049,0.621 -1.058,0.607 -1.064,0.595 -1.072,0.581 -1.079,0.568 -1.086,0.555 -1.092,0.542 -1.099,0.528 -1.106,0.515 -1.11101,0.501 -1.118,0.487 -1.124,0.474 -1.129,0.459 -1.135,0.446 -1.14,0.432 -1.146,0.417 -1.151,0.404 -1.155,0.39 -1.16,0.375 -1.16501,0.361 -1.169,0.347 -1.173,0.332 -1.177,0.318 -1.181,0.304 -1.185,0.289 -1.188,0.275 -1.191,0.26 -1.194,0.245 -1.198,0.23 -1.20001,0.216 -1.202,0.201 -1.206,0.186 -1.207,0.172 -1.209,0.156 -1.211,0.142 -1.213,0.127 -1.214,0.112 -1.215,0.097 -1.21701,0.083 -1.218,0.067 -1.218,0.053 -1.219,0.037 -1.219,0.023 -1.219,0.007 -1.219,-0.007 -1.219,-0.023 -1.219,-0.037 -1.218,-0.053 -1.21801,-0.067 -1.216,-0.083 -1.216,-0.097 -1.214,-0.112 -1.213,-0.127 -1.211,-0.142 -1.209,-0.156 -1.207,-0.172 -1.205,-0.186 -1.20301,-0.201 -1.2,-0.216 -1.198,-0.23 -1.194,-0.245 -1.191,-0.26 -1.188,-0.275 -1.185,-0.289 -1.181,-0.304 -1.177003,-0.318 -1.173001,-0.332 -1.169001,-0.347 -1.165001,-0.361 -1.160001,-0.375 -1.155001,-0.39 -1.151001,-0.403 -1.146001,-0.418 -1.140001,-0.432 -1.135001,-0.446 -1.129001,-0.459 -1.124001,-0.474 -1.118001,-0.487 -1.111001,-0.501 -1.106001,-0.515 -1.099,-0.528 -1.092001,-0.542 -1.086001,-0.555 -1.079001,-0.568 -1.072001,-0.581 -1.064001,-0.595 -1.057001,-0.607 -1.050001,-0.621 -1.042001,-0.633 -1.034001,-0.646 -1.027001,-0.658 -1.018001,-0.671 -1.009,-0.684 -1.001001,-0.696 -0.993001,-0.708 -0.984001,-0.721 -0.975001,-0.732 -0.965001,-0.745 -0.957001,-0.756 -0.947,-0.767 -0.938001,-0.78 -0.928001,-0.79 -0.919001,-0.803 -0.908001,-0.813 -0.899,-0.824 -0.888001,-0.835 -0.878001,-0.847 -0.868001,-0.856 -0.856001,-0.868 -0.847,-0.878 -0.835001,-0.888 -0.824001,-0.899 -0.813,-0.908 -0.803001,-0.919 -0.790001,-0.928 -0.78,-0.938 -0.767001,-0.947 -0.756001,-0.957 -0.745,-0.965 -0.732001,-0.975 -0.721001,-0.984 -0.708,-0.993 -0.696001,-1.001 -0.683001,-1.009 -0.672,-1.018 -0.658001,-1.027 -0.646,-1.034 -0.633001,-1.042 -0.621,-1.05 -0.607001,-1.057 -0.595,-1.064 -0.581001,-1.072 -0.568,-1.079 -0.555001,-1.086 -0.542,-1.092 -0.528001,-1.099 -0.515,-1.106 -0.501001,-1.111 -0.487,-1.118 -0.474001,-1.124 -0.459,-1.129 -0.446,-1.135 -0.432001,-1.14 -0.417,-1.146 -0.404,-1.151 -0.390001,-1.155 -0.375,-1.16 -0.361,-1.165 -0.347001,-1.169 -0.332,-1.173 -0.318,-1.177 -0.304001,-1.181 -0.289,-1.185 -0.275,-1.188 -0.26,-1.191 -0.245,-1.194 -0.230001,-1.198 -0.216,-1.2 -0.201,-1.203 -0.186,-1.205 -0.172,-1.207 -0.156,-1.209 -0.142001,-1.211 -0.127,-1.213 -0.112,-1.214 -0.097,-1.216 -0.083,-1.216 -0.067,-1.218 -0.053,-1.218 -0.037,-1.219 -0.022,-1.219 -0.008,-1.219 0.008,-1.219 0.022,-1.219 0.037,-1.219 0.053,-1.218 0.067,-1.218 0.083,-1.216 0.097,-1.216 0.112,-1.214 0.127,-1.213 0.142001,-1.211 0.156,-1.209 0.172,-1.207 0.186,-1.205 0.201,-1.203 0.216,-1.2 0.230001,-1.198 0.245,-1.194 0.26,-1.191 0.275,-1.188 0.289,-1.185 0.304001,-1.181 0.318,-1.17701 0.332,-1.173006 0.347001,-1.168996 0.361,-1.165 0.375,-1.16 0.390001,-1.155 0.404,-1.151 0.417,-1.146 0.432001,-1.14 0.446,-1.135 0.459,-1.129 0.474001,-1.124 0.487,-1.118 0.501001,-1.111 0.515,-1.106 0.528001,-1.099 0.542,-1.092 0.555001,-1.086"
         id="path15"
         inkscape:connector-curvature="0"
         style="fill:none;stroke:#0c0c0c;stroke-width:0;stroke-linecap:butt;stroke-linejoin:round;stroke-opacity:1" />
    </g>
    <path
       inkscape:connector-curvature="0"
       style="fill:#ffffff;fill-opacity:1;stroke:none;stroke-width:0;stroke-linecap:butt;stroke-linejoin:round;stroke-opacity:1"
       d="m 103,50 10.00001,0 10.00001,0 10.00001,0 10,0 4.11801,0 -4.47201,-8.944 -4.472,-8.944 -4.473,-8.945 -4.47201,-8.944 -4.17,-8.341 -4.47201,8.945 -4.472,8.944 -4.472,8.944 L 107.17,41.66 103,50"
       id="path11-0" />
    <path
       inkscape:connector-curvature="0"
       style="fill:#ffffff;fill-opacity:1;stroke:none;stroke-width:0;stroke-linecap:butt;stroke-linejoin:round;stroke-opacity:1"
       d="m 147.11813,199.882 -10.00001,0 -10.00001,0 -10.00001,0 -10.00001,0 -4.118,0 4.472,8.944 4.47201,8.944 4.473,8.945 4.472,8.944 4.17001,8.341 4.472,-8.945 4.47201,-8.944 4.472,-8.944 4.473,-8.944 4.17001,-8.341"
       id="path11-4" />
  </g>
</svg>
