<?xml version="1.0" encoding="UTF-8" standalone="no"?>
<!-- Created with Inkscape (http://www.inkscape.org/) -->

<svg
   xmlns:dc="http://purl.org/dc/elements/1.1/"
   xmlns:cc="http://creativecommons.org/ns#"
   xmlns:rdf="http://www.w3.org/1999/02/22-rdf-syntax-ns#"
   xmlns:svg="http://www.w3.org/2000/svg"
   xmlns="http://www.w3.org/2000/svg"
   xmlns:sodipodi="http://sodipodi.sourceforge.net/DTD/sodipodi-0.dtd"
   xmlns:inkscape="http://www.inkscape.org/namespaces/inkscape"
   width="70.386467mm"
   height="70.386467mm"
   viewBox="0 0 249.40087 249.40087"
   id="svg2"
   version="1.1"
   inkscape:version="0.91 r13725"
   sodipodi:docname="unknown.svg">
  <defs
     id="defs4" />
  <sodipodi:namedview
     id="base"
     pagecolor="#ffffff"
     bordercolor="#666666"
     borderopacity="1.0"
     inkscape:pageopacity="0.0"
     inkscape:pageshadow="2"
     inkscape:zoom="1.979899"
     inkscape:cx="-8.2948396"
     inkscape:cy="170.22389"
     inkscape:document-units="px"
     inkscape:current-layer="layer1"
     showgrid="false"
     fit-margin-top="0"
     fit-margin-left="0"
     fit-margin-right="0"
     fit-margin-bottom="0"
     inkscape:window-width="1920"
     inkscape:window-height="1018"
     inkscape:window-x="-8"
     inkscape:window-y="-8"
     inkscape:window-maximized="1" />
  <metadata
     id="metadata7">
    <rdf:RDF>
      <cc:Work
         rdf:about="">
        <dc:format>image/svg+xml</dc:format>
        <dc:type
           rdf:resource="http://purl.org/dc/dcmitype/StillImage" />
        <dc:title />
      </cc:Work>
    </rdf:RDF>
  </metadata>
  <g
     inkscape:label="Layer 1"
     inkscape:groupmode="layer"
     id="layer1"
     transform="translate(-263.87099,-564.80462)">
    <path
       d="m 391.78949,564.84492 -3.21802,-0.0403 -3.21802,0.0403 -3.19788,0.12189 -3.17562,0.2014 -3.1555,0.28088 -3.1311,0.35721 -3.10778,0.43564 -3.08342,0.5109 -3.0569,0.58615 -3.02935,0.65929 -3.00285,0.73349 -2.97317,0.80451 -2.9435,0.87658 -2.91275,0.94548 -2.88096,1.01544 -2.8481,1.08327 -2.81418,1.15005 -2.7792,1.21577 -2.74422,1.28148 -2.70712,1.34614 -2.66897,1.40868 -2.6308,1.47122 -2.59159,1.53164 -2.55025,1.59311 -2.50892,1.65141 -2.46651,1.7097 -2.42306,1.76801 -2.37853,1.82312 -2.33296,1.8793 -2.28632,1.93335 -2.23863,1.98636 -2.18986,2.03935 -2.14111,2.09023 -2.09023,2.14111 -2.03935,2.18986 -1.98636,2.23863 -1.93336,2.28632 -1.8793,2.33296 -1.82312,2.37854 -1.768,2.42305 -1.70971,2.46652 -1.65141,2.50891 -1.59311,2.55025 -1.53163,2.59159 -1.47122,2.63081 -1.40868,2.66896 -1.34614,2.70712 -1.28149,2.74423 -1.21576,2.7792 -1.15005,2.81524 -1.08328,2.84809 -1.01543,2.8799 -0.94548,2.91275 -0.87658,2.9435 -0.80451,2.97317 -0.73349,3.00285 -0.65929,3.02935 -0.58616,3.0569 -0.51089,3.08342 -0.43564,3.10778 -0.35721,3.1311 -0.28089,3.1555 -0.20139,3.17668 -0.12189,3.19682 -0.0403,3.21802 0.0403,3.21802 0.12189,3.19788 0.20139,3.17562 0.28089,3.1555 0.35721,3.1311 0.43564,3.10778 0.51089,3.08342 0.58616,3.0569 0.65929,3.02936 0.73349,3.00284 0.80451,2.97318 0.87658,2.94348 0.94548,2.91276 1.01543,2.88096 1.08328,2.8481 1.15005,2.81418 1.21576,2.7792 1.28149,2.74422 1.34614,2.70712 1.40868,2.66896 1.47122,2.63082 1.53163,2.59158 1.59311,2.55026 1.65141,2.5089 1.70971,2.46652 1.768,2.42306 1.82312,2.37854 1.8793,2.33296 1.93336,2.28632 1.98636,2.23862 2.03935,2.18986 2.09023,2.14112 2.14111,2.09022 2.18986,2.03936 2.23863,1.98634 2.28632,1.93336 2.33296,1.8793 2.37853,1.82312 2.42306,1.768 2.46651,1.70972 2.50892,1.6514 2.55025,1.59312 2.59159,1.53164 2.6308,1.4712 2.66897,1.40868 2.70712,1.34614 2.74422,1.2815 2.7792,1.21576 2.81524,1.15006 2.8481,1.08326 2.8799,1.01544 2.91275,0.94548 2.9435,0.87658 2.97317,0.8045 3.00285,0.7335 3.02935,0.65928 3.0569,0.58616 3.08342,0.5109 3.10778,0.43564 3.1311,0.3572 3.1555,0.2809 3.17668,0.20138 3.19682,0.1219 3.21802,0.0402 3.21802,-0.0402 3.19788,-0.1219 3.17562,-0.20138 3.1555,-0.2809 3.1311,-0.3572 3.10778,-0.43564 3.08342,-0.5109 3.0569,-0.58616 3.02936,-0.65928 3.00284,-0.7335 2.97318,-0.8045 2.94348,-0.87658 2.91276,-0.94548 2.88096,-1.01544 2.8481,-1.08326 2.81418,-1.15006 2.7792,-1.21576 2.74422,-1.2815 2.70712,-1.34614 2.66896,-1.40868 2.63082,-1.4712 2.59158,-1.53164 2.55026,-1.59312 2.5089,-1.6514 2.46652,-1.70972 2.42306,-1.768 2.37854,-1.82312 2.33296,-1.8793 2.28632,-1.93336 2.23862,-1.98634 2.18986,-2.03936 2.14112,-2.09022 2.09022,-2.14112 2.03936,-2.18986 1.98634,-2.23862 1.93336,-2.28632 1.8793,-2.33296 1.82312,-2.37854 1.768,-2.42306 1.70972,-2.46652 1.6514,-2.5089 1.59312,-2.55026 1.53164,-2.59158 1.4712,-2.63082 1.40868,-2.66896 1.34614,-2.70712 1.2815,-2.74422 1.21576,-2.7792 1.15006,-2.81524 1.08326,-2.8481 1.01544,-2.8799 0.94548,-2.91276 0.87658,-2.94348 0.8045,-2.97318 0.7335,-3.00284 0.65928,-3.02936 0.58616,-3.0569 0.5109,-3.08342 0.43564,-3.10778 0.3572,-3.1311 0.2809,-3.1555 0.20138,-3.17668 0.1219,-3.19682 0.0402,-3.21802 -0.0402,-3.21802 -0.1219,-3.19788 -0.20138,-3.17562 -0.2809,-3.1555 -0.3572,-3.1311 -0.43564,-3.10778 -0.5109,-3.08342 -0.58616,-3.0569 -0.65928,-3.02935 -0.7335,-3.00285 -0.8045,-2.97317 -0.87658,-2.9435 -0.94548,-2.91275 -1.01544,-2.88096 -1.08326,-2.84809 -1.15006,-2.81418 -1.21576,-2.7792 -1.2815,-2.74423 -1.34614,-2.70712 -1.40868,-2.66896 -1.4712,-2.63081 -1.53164,-2.59159 -1.59312,-2.55025 -1.6514,-2.50891 -1.70972,-2.46652 -1.768,-2.42305 -1.82312,-2.37854 -1.8793,-2.33296 -1.93336,-2.28632 -1.98634,-2.23863 -2.03936,-2.18986 -2.09022,-2.14111 -2.14112,-2.09023 -2.18986,-2.03935 -2.23862,-1.98636 -2.28632,-1.93335 -2.33296,-1.8793 -2.37854,-1.82312 -2.42306,-1.76801 -2.46652,-1.7097 -2.5089,-1.65141 -2.55026,-1.59311 -2.59158,-1.53164 -2.63082,-1.47122 -2.66896,-1.40868 -2.70712,-1.34614 -2.74422,-1.28148 -2.7792,-1.21577 -2.81524,-1.15005 -2.8481,-1.08327 -2.8799,-1.01544 -2.91276,-0.94548 -2.94348,-0.87658 -2.97318,-0.80451 -3.00284,-0.73349 -3.02936,-0.65929 -3.0569,-0.58615 -3.08342,-0.5109 -3.10778,-0.43564 -3.1311,-0.35721 -3.1555,-0.28088 -3.17668,-0.2014 -3.19682,-0.12189 z"
       fill_rule="evenodd"
       id="path4155"
       style="fill:#000000;fill-opacity:1;stroke:none"
       inkscape:connector-curvature="0" />
    <text
       xml:space="preserve"
       style="font-style:normal;font-weight:normal;font-size:99.24455261px;line-height:125%;font-family:sans-serif;letter-spacing:0px;word-spacing:0px;fill:#ffffff;fill-opacity:1;stroke:none;stroke-width:1px;stroke-linecap:butt;stroke-linejoin:miter;stroke-opacity:1"
       x="341.87454"
       y="733.89838"
       id="text3342"
       sodipodi:linespacing="125%"><tspan
         sodipodi:role="line"
         id="tspan3344"
         x="341.87454"
         y="733.89838" /></text>
    <text
       xml:space="preserve"
       style="font-style:normal;font-variant:normal;font-weight:normal;font-stretch:normal;font-size:208.78096008px;line-height:125%;font-family:Roboto;-inkscape-font-specification:Roboto;letter-spacing:0px;word-spacing:0px;fill:#ffffff;fill-opacity:1;stroke:none;stroke-width:1px;stroke-linecap:butt;stroke-linejoin:miter;stroke-opacity:1"
       x="339.66013"
       y="764.20551"
       id="text4146"
       sodipodi:linespacing="125%"><tspan
         sodipodi:role="line"
         id="tspan4148"
         x="339.66013"
         y="764.20551"
         style="-inkscape-font-specification:'Roboto, Heavy';font-family:Roboto;font-weight:900;font-style:normal;font-stretch:normal;font-variant:normal;font-size:208.77500534px;text-anchor:start;text-align:start;writing-mode:lr;line-height:125%">?</tspan></text>
  </g>
</svg>
